<svg width="214" height="64" viewBox="0 0 214 64" fill="none" xmlns="http://www.w3.org/2000/svg">
<g clip-path="url(#clip0_193_552)">
<g opacity="0.8">
<path d="M65.2449 32.5706C65.2885 32.6699 65.34 32.6699 65.3796 32.5547C65.3994 32.4951 65.4153 32.4077 65.4272 32.3005C65.34 32.3005 65.2568 32.3005 65.1696 32.3005C65.1933 32.4157 65.2171 32.507 65.2409 32.5666L65.2449 32.5706Z" fill="#FEFEFC"/>
<path d="M31.8051 57.834C32.0429 57.8142 32.0984 57.7585 31.92 57.699C31.7971 57.6473 31.5276 57.6155 31.2779 57.6235C31.266 57.7029 31.2581 57.7824 31.2462 57.8578C31.4325 57.8499 31.6188 57.842 31.8051 57.83V57.834Z" fill="#FEFEFC"/>
<path d="M65.4153 31.1088C65.3875 30.6957 65.3201 30.2905 65.2646 29.8854C65.2052 29.4842 65.1497 29.079 65.0823 28.6818C64.9159 27.8873 64.7851 27.1048 64.571 26.3382C64.2024 24.8009 63.6674 23.3272 63.0927 21.9091C62.4862 20.495 61.7887 19.1484 60.9999 17.8654C60.1914 16.5943 59.3155 15.3827 58.3325 14.2586C54.4087 9.75408 49.1214 6.51671 42.6609 4.78084C39.3197 3.899 35.9389 3.54548 32.6214 3.64081C29.308 3.74409 26.0421 4.28034 22.9347 5.31709C19.8313 6.34987 16.8785 7.85932 14.2468 9.86928C11.6269 11.8872 9.35188 14.4175 7.61191 17.349C6.87867 18.5764 6.28018 19.8674 5.74115 21.1782L5.38047 22.1753C5.32102 22.3421 5.2576 22.5089 5.20212 22.6758L5.0515 23.1842L4.75028 24.1971L4.50454 25.222L4.38168 25.7344L4.28655 26.2508L4.09631 27.2796C4.04082 27.6252 4.00118 27.9708 3.95758 28.3163C3.91795 28.6619 3.8585 29.0035 3.83868 29.3531C3.79112 30.0443 3.71185 30.7354 3.71185 31.4266L3.6841 32.4673C3.6841 32.8129 3.71581 33.1545 3.73167 33.5001C3.71581 34.4058 3.78319 35.3035 3.83472 36.2052L3.98136 37.5558C4.02496 38.0086 4.12009 38.4535 4.1835 38.9023C4.48869 40.6938 4.95242 42.4654 5.5945 44.1775C4.71857 42.0086 4.11216 39.7286 3.73959 37.4128C3.55331 36.2529 3.42648 35.085 3.35514 33.9053C3.26001 32.7255 3.29965 31.5338 3.37099 30.3541C3.54538 27.6768 4.00911 25.0114 4.81369 22.4454L5.14266 21.492L5.30913 21.0154L5.49938 20.5466L5.87987 19.6132L6.30793 18.6996L6.52195 18.2427C6.5933 18.0918 6.68049 17.9448 6.75976 17.7979L7.23934 16.912L7.76252 16.0501L8.02807 15.6171L8.31344 15.2C9.05462 14.0719 9.91865 13.0351 10.8184 12.0302C11.73 11.0371 12.7248 10.1275 13.7672 9.26947C14.8254 8.43927 15.9312 7.65674 17.0965 6.97352C18.2657 6.30221 19.4627 5.67062 20.7152 5.16218C22.2252 4.52662 23.4619 3.93873 23.4222 3.6567C23.3826 3.39453 21.9993 3.56136 20.4377 4.20487C19.1218 4.7292 17.8535 5.36476 16.6169 6.06387C15.3843 6.7749 14.2151 7.58127 13.0894 8.45516C11.9797 9.34494 10.9333 10.3142 9.95432 11.3549C8.99913 12.4115 8.08753 13.5158 7.29483 14.7035C6.50214 15.8872 5.77286 17.1226 5.17437 18.4175C4.85333 19.0571 4.5957 19.7204 4.32222 20.3798C4.1835 20.7095 4.08045 21.0471 3.95758 21.3848C3.84661 21.7224 3.71185 22.0521 3.62069 22.3977C2.78836 25.1187 2.3167 27.931 2.17402 30.7553C2.01152 34.3819 2.48713 37.9172 3.41062 41.3651C4.39357 44.7932 5.90761 48.102 8.05582 50.974C10.1802 53.8499 12.8516 56.3047 15.852 58.1796C18.8523 60.0585 22.1658 61.3653 25.5704 62.124C27.243 62.4974 28.9433 62.7397 30.6476 62.847C30.7031 62.4498 30.7665 62.0565 30.826 61.6712C29.5299 61.5838 28.2418 61.4249 26.9656 61.1866C23.0576 60.4636 19.2804 58.9899 15.9511 56.7973C17.6791 57.8698 19.5261 58.7357 21.4286 59.3713C24.4131 60.5073 27.6235 61.1945 30.8617 61.4527V61.4448C30.9092 60.9085 30.9687 60.3723 31.0242 59.836C27.8653 59.6652 24.7262 59.0177 21.7655 57.8817C17.2986 56.1736 13.2836 53.2699 10.3427 49.4566C10.2952 49.3811 10.2476 49.3096 10.1882 49.2302C7.9171 46.0563 6.39512 42.3979 5.64206 38.5528C5.57865 38.2112 5.49541 37.9013 5.41218 37.6789C5.33687 37.4525 5.26553 37.3174 5.20212 37.3214C5.17437 37.3293 5.14663 37.3691 5.13077 37.4406L4.94053 36.2767C4.86918 35.8874 4.84144 35.4942 4.79388 35.1049C4.6829 34.3184 4.65516 33.5359 4.5957 32.7533C4.58778 32.0979 4.56003 31.5418 4.48076 31.1922C4.79388 27.8357 5.60639 24.642 6.89056 21.7582C6.71616 22.2746 6.51006 22.783 6.35945 23.3113L6.12957 24.1018L6.01463 24.499L5.91951 24.9002C5.38444 27.0929 5.11096 29.3531 5.05943 31.5815L5.04358 32.4117C5.02772 32.6898 5.07132 32.9639 5.08321 33.2419C5.12285 33.7941 5.14266 34.3422 5.22193 34.8983C5.28931 35.4505 5.33687 36.0026 5.44389 36.5428C5.53901 37.087 5.61828 37.6312 5.74908 38.1675C6.67257 42.4535 8.55522 46.4218 11.2623 49.5162C12.6059 51.0693 14.1239 52.4199 15.7608 53.548C17.4057 54.6642 19.1575 55.554 20.949 56.2372C24.3497 57.5321 27.9089 58.0048 31.262 57.8737C31.2739 57.7943 31.2818 57.7149 31.2937 57.6394C31.2699 57.6394 31.2461 57.6394 31.2223 57.6394C27.8494 57.6831 24.3814 57.0952 21.1353 55.7923C17.8852 54.5013 14.8571 52.4953 12.4117 49.83C9.96225 47.1725 8.13509 43.8517 7.06891 40.2092C6.53384 38.3899 6.17713 36.4872 6.0067 34.5488C5.94725 34.0642 5.94329 33.5915 5.90761 33.1108C5.86005 32.6342 5.89176 32.1535 5.89969 31.6729L5.91554 30.9539L5.97103 30.223C6.0067 29.7344 6.03445 29.2419 6.10975 28.7573C6.80732 25.7701 7.84575 22.5169 9.50645 19.5099C11.1553 16.5029 13.4739 13.7899 16.1334 11.8117C16.4425 11.5853 16.7121 11.3549 16.9063 11.1563C17.1084 10.9696 17.2233 10.8147 17.2154 10.7392C17.2035 10.5763 16.6407 10.7908 16.0422 11.2397L15.6578 11.5098C15.5309 11.6051 15.412 11.7005 15.2892 11.7958C15.0434 11.9904 14.7937 12.1771 14.5559 12.3797C14.0882 12.7928 13.6047 13.198 13.1687 13.6469C12.7129 14.0719 12.3126 14.5446 11.8925 15.0014C11.8726 15.0252 11.8568 15.0451 11.837 15.0689C11.6507 15.2993 11.4604 15.5257 11.2781 15.7561C11.0839 16.0024 10.8937 16.2487 10.7113 16.5029C10.8897 16.2447 11.08 15.9984 11.2781 15.7561C11.4644 15.5257 11.6547 15.2993 11.837 15.0689C11.8489 15.053 11.8647 15.0372 11.8766 15.0173C11.8806 15.0133 11.8885 15.0054 11.8925 15.0014C13.5254 13.0788 15.4596 11.4065 17.6276 10.0758C19.1337 9.24563 20.7112 8.56638 22.3442 8.03807C22.9189 7.87124 23.557 7.56141 23.7869 7.37471C23.8344 7.33102 23.8423 7.29924 23.8344 7.27143C25.6814 6.69546 27.5759 6.30221 29.4824 6.08771C31.3888 5.87321 33.3151 5.8454 35.2136 5.98443C37.1121 6.12346 38.9908 6.42932 40.8179 6.90202C42.6411 7.38266 44.4088 8.03013 46.0854 8.83252C47.7659 9.63889 49.3553 10.6002 50.8217 11.7164C52.2882 12.8326 53.6279 14.1037 54.8169 15.4979C57.2029 18.2864 58.9667 21.5953 60.0923 25.1505V25.1584C60.4015 26.1991 60.7027 26.8903 60.8573 26.648C60.9286 26.5288 60.9682 26.2031 60.9127 25.7741C60.8573 25.3491 60.7661 24.8128 60.5996 24.2845C59.3908 20.062 57.1593 16.2249 54.0956 13.2417C51.0595 10.2347 47.2823 8.03807 43.1643 6.65574C37.8493 4.88015 32.126 4.5147 26.6881 5.59912C25.3287 5.86923 23.993 6.24262 22.685 6.69546C21.3731 7.14035 20.1008 7.70043 18.8721 8.34394C16.4069 9.61902 14.1556 11.3072 12.2135 13.3132C11.1632 14.2943 10.1882 15.3708 9.29242 16.5387C8.40857 17.7105 7.62776 18.9816 6.93019 20.3123C7.31069 19.4821 7.72685 18.6678 8.1985 17.8773C9.92658 14.9498 12.2016 12.4274 14.8254 10.4135C17.4532 8.40352 20.4219 6.90996 23.5372 5.89307C29.7717 3.87517 36.573 3.70834 43.1247 5.42434C49.3037 7.04899 54.6187 10.4214 58.4395 15.1007C62.2682 19.78 64.5076 25.7026 65.1418 31.9907C65.1537 32.1178 65.1695 32.225 65.1893 32.3204C65.2765 32.3204 65.3598 32.3204 65.447 32.3204C65.4826 32.0145 65.4787 31.5497 65.4311 31.1247L65.4153 31.1088Z" fill="#FEFEFC"/>
<path d="M11.8173 15.0491C11.8371 15.0252 11.8529 15.0054 11.8727 14.9815C11.8688 14.9855 11.8609 14.9935 11.8569 14.9974C11.845 15.0133 11.8292 15.0292 11.8173 15.0491Z" fill="#FEFEFC"/>
<path d="M11.2544 15.7363C11.0562 15.9786 10.866 16.2249 10.6876 16.483C10.8699 16.2288 11.0602 15.9825 11.2544 15.7363Z" fill="#FEFEFC"/>
<path d="M30.398 63.852C28.0318 63.5779 25.6458 63.0893 23.347 62.4259C21.0482 61.7506 18.8405 60.8926 16.7835 59.9433C16.5853 59.8559 16.4505 59.8281 16.5298 59.9155C16.613 60.0029 16.8231 60.1419 17.053 60.2452C19.0426 61.131 21.1869 61.9572 23.4262 62.5967C25.6616 63.2402 27.9724 63.7129 30.2474 63.987C30.5248 64.0188 30.7508 64.0029 30.7785 63.9592C30.8261 63.9234 30.6318 63.8758 30.4059 63.8559L30.398 63.852Z" fill="#FEFEFC"/>
<path d="M51.4837 4.63387C51.3846 4.50676 51.0794 4.28034 50.7306 4.10953C46.894 2.16711 42.7601 0.911883 38.531 0.347826C34.302 -0.21226 29.966 -0.101037 25.729 0.772855C21.496 1.64675 17.3581 3.28728 13.6721 5.76198C9.99004 8.21682 6.79548 11.5336 4.54423 15.3827C2.37224 19.0372 1.04844 23.1326 0.434102 27.216C0.366723 27.7284 0.287453 28.2369 0.231964 28.7493L0.10117 30.2826C0.0575715 30.795 0.053608 31.3313 0.0298271 31.8516C0.0258637 32.1138 0.0100098 32.376 0.0100098 32.6381L0.0456811 33.4246L0.0853158 34.2111C0.0932428 34.4773 0.11306 34.7355 0.140804 34.9857L0.291417 36.5071C0.438065 37.52 0.58075 38.529 0.802705 39.53C1.2268 41.532 1.82925 43.5062 2.61798 45.393C3.40275 47.2838 4.40154 49.0832 5.55491 50.7475C7.86562 54.0842 10.862 56.829 14.1438 58.7913C14.3221 58.8946 14.4371 58.9184 14.3935 58.8469C14.3063 58.7476 14.0724 58.5649 13.898 58.4656H13.8901C10.6718 56.4795 7.75861 53.7426 5.52321 50.4457C4.40154 48.8012 3.44634 47.0256 2.67347 45.1666C1.90455 43.3075 1.32985 41.3651 0.921609 39.3949C0.703618 38.4098 0.56886 37.4167 0.430138 36.4197C0.382577 35.9192 0.335015 35.4227 0.28349 34.9222C0.231964 34.4256 0.224038 33.8973 0.196293 33.3849L0.164585 32.6103L0.188366 31.8357C0.212147 31.3233 0.216111 30.791 0.259709 30.2905L0.394467 28.7771C0.449956 28.2726 0.529225 27.7682 0.596604 27.2637C1.21491 23.2319 2.53474 19.1842 4.72258 15.5694C5.6104 14.1037 6.6092 12.7174 7.70312 11.4304C8.80893 10.1513 10.0218 8.97949 11.302 7.91493C12.5822 6.84243 13.9535 5.90498 15.3685 5.07081C16.7874 4.23664 18.2539 3.50575 19.764 2.90595C21.2741 2.30217 22.8198 1.80166 24.3894 1.40444C25.9629 1.01913 27.5562 0.737105 29.1653 0.55041C30.7745 0.359742 32.3995 0.292214 34.0325 0.312075C35.6615 0.339881 37.3024 0.451104 38.9393 0.697382C43.2476 1.30116 47.4092 2.71925 51.0556 4.53853C51.3608 4.70537 51.563 4.75303 51.4797 4.64181L51.4837 4.63387Z" fill="#FEFEFC"/>
<path d="M25.7884 1.18994C21.2502 2.24258 16.9023 4.17309 13.137 7.01721C11.2543 8.4353 9.50645 10.0599 7.96466 11.8872C6.42683 13.7144 5.08321 15.7283 3.96551 17.8773C2.76061 20.2011 1.88072 22.648 1.34169 25.1624C1.22278 25.794 1.09199 26.4216 0.996864 27.0611C0.917594 27.6967 0.818507 28.3362 0.770946 28.9797C0.731311 29.6272 0.667895 30.2627 0.656005 30.9261C0.656005 31.2598 0.652041 31.5934 0.644114 31.9311C0.644114 32.2647 0.632224 32.6024 0.667895 32.936C0.703567 33.3849 0.739238 33.8338 0.770946 34.2747C0.79869 34.7196 0.873996 35.1367 0.921558 35.5657C1.01668 36.4157 1.18315 37.2459 1.3298 38.0721C1.4051 38.4853 1.51212 38.8904 1.60328 39.2996C1.6984 39.7047 1.78956 40.1099 1.90846 40.5111C2.0234 40.9123 2.13438 41.3095 2.24932 41.7067L2.64567 42.8865C3.7277 46.0126 5.25364 48.9918 7.30276 51.8757C7.43355 52.0663 7.60398 52.2332 7.67136 52.257C7.70703 52.2411 7.63172 52.0902 7.49697 51.8995C5.29327 48.7892 3.66032 45.4486 2.58622 41.957C2.05908 40.2092 1.64687 38.4296 1.37339 36.6223C1.30205 36.1694 1.25845 35.7166 1.20296 35.2598L1.1237 34.5726L1.07613 33.8695C1.04839 33.4008 1.00479 32.9281 0.9929 32.4514C1.00083 31.9748 1.00875 31.4981 1.01668 31.0214C1.08802 29.2657 1.2426 27.5417 1.58346 25.8218L1.70236 25.1783L1.84901 24.5387C1.95206 24.1137 2.04322 23.6847 2.16213 23.2676L2.53866 22.0084C2.66152 21.5874 2.82799 21.1782 2.97068 20.7691C4.16765 17.4761 5.98292 14.4056 8.25003 11.7481C10.529 9.09469 13.2718 6.88215 16.2562 5.14231C19.2566 3.42234 22.4948 2.15917 25.8598 1.33691C26.1491 1.27336 26.3156 1.20186 26.3235 1.16213C26.2957 1.12241 26.046 1.13036 25.7924 1.18994H25.7884Z" fill="#FEFEFC"/>
<path d="M6.74795 30.0284C6.7202 30.3064 6.6885 30.5845 6.66075 30.8586C6.63301 31.1366 6.62904 31.4028 6.60923 31.6808C6.59337 31.9549 6.57752 32.229 6.56167 32.5031C6.5577 32.7772 6.57356 33.0552 6.57752 33.3333L6.6013 34.1635L6.66868 35.0135L6.74002 35.8676L6.85496 36.7097C7.17204 38.958 7.73485 41.1665 8.61871 43.1884C9.49067 45.2142 10.6203 47.0693 11.9639 48.6423C13.3075 50.2113 14.8334 51.5062 16.4149 52.4993C16.5853 52.6026 16.6408 52.5708 16.5576 52.4675C16.4822 52.3563 16.2841 52.1736 16.1255 52.0782C14.6036 51.0733 13.1291 49.7863 11.8807 48.2133C10.6242 46.6482 9.55805 44.8329 8.7495 42.8627C7.95285 40.8845 7.42174 38.7554 7.13241 36.5865L7.02539 35.7722L6.95801 34.9539L6.8946 34.1357L6.87082 33.3372C6.86685 33.0711 6.851 32.805 6.84704 32.5428C6.86289 32.2806 6.87478 32.0145 6.89063 31.7523C6.90649 31.4902 6.91838 31.228 6.93027 30.9658C6.95801 30.6957 6.98179 30.4335 7.00954 30.1674C7.04917 29.7583 7.02539 29.4008 6.96198 29.3491C6.88271 29.3213 6.79551 29.6033 6.74795 30.0363V30.0284Z" fill="#FEFEFC"/>
<path d="M25.6894 62.2789C23.3668 61.7467 21.0958 60.9681 18.9436 59.9314C16.7914 58.9025 14.7502 57.6394 12.8993 56.1418C11.0444 54.6483 9.35197 52.9521 7.90926 51.0653C5.26959 47.3354 3.597 43.0176 2.73296 38.6203C2.60217 37.9887 2.46741 37.4843 2.3604 37.5001C2.26131 37.5121 2.23357 38.0483 2.3604 38.6918C2.76467 40.9401 3.36316 43.1765 4.24305 45.3135C4.18756 45.2659 4.14396 45.2539 4.12018 45.2817C3.32352 43.4108 2.72504 41.4605 2.30094 39.4863C2.20582 38.9897 2.09484 38.4972 2.01161 37.9967L1.78966 36.5031C1.68264 35.5021 1.57166 34.513 1.53996 33.4802L1.50429 32.7136C1.4924 32.4554 1.51221 32.2012 1.52014 31.947C1.53996 31.4345 1.54392 30.9181 1.57959 30.4176L1.70246 28.9122C1.75398 28.4117 1.82929 27.9112 1.89271 27.4107C2.186 25.4126 2.64577 23.4225 3.29974 21.4881C3.45432 21.063 3.51377 20.7174 3.45432 20.7016C3.3909 20.6738 3.21254 21.0034 3.06193 21.4324C2.36436 23.4583 1.88478 25.5397 1.59148 27.6331C1.43294 28.6818 1.35367 29.7225 1.28233 30.7751L1.23477 32.3799C1.22684 32.9122 1.2744 33.4485 1.29422 33.9807C1.42502 36.094 1.71435 38.1635 2.20186 40.2211C2.6854 42.2748 3.37505 44.2847 4.27476 46.2073C4.37384 46.5052 4.53238 46.8349 4.70281 47.1765C5.51532 48.7694 6.46259 50.2828 7.54066 51.689C8.62665 53.0912 9.83551 54.3821 11.1474 55.554C12.4593 56.7258 13.8703 57.7784 15.3685 58.7039C16.8667 59.6215 18.4481 60.412 20.089 61.0754C23.4778 62.4458 27.0013 63.268 30.5486 63.5739C30.5685 63.3951 30.5883 63.2164 30.6121 63.0416C28.9553 62.9185 27.3105 62.6762 25.6894 62.2948V62.2789Z" fill="#FEFEFC"/>
</g>
<g opacity="0.8">
<path d="M53.6874 30.8466C53.3743 29.3928 52.8828 28.0065 52.2566 26.7155C51.0081 24.1296 49.1849 21.9647 47.1675 20.3083C47.0248 20.2011 46.9535 20.213 47.0089 20.3441C47.0367 20.4513 47.1833 20.634 47.3379 20.7572C49.173 22.4414 50.7386 24.5308 51.8127 26.8903C52.649 28.7096 53.184 30.6957 53.3584 32.7454C53.5645 32.7414 53.7667 32.7374 53.9728 32.7335C53.9094 32.0939 53.8142 31.4623 53.6874 30.8466Z" fill="#8CA1D3"/>
<path d="M29.752 52.9005C28.5233 52.5112 27.3382 52.0028 26.2086 51.391C25.8202 51.1607 25.3129 51.0018 25.083 51.0018C25.0354 51.0057 25.0077 51.0256 24.9958 51.0494C22.4394 49.683 20.1643 47.824 18.3094 45.6512C17.382 44.5667 16.5496 43.4029 15.8322 42.1874C15.1228 40.9639 14.5322 39.6888 14.0645 38.374C13.1291 35.7484 12.7209 32.9797 12.9151 30.2468C13.0974 27.51 13.8664 24.8128 15.1109 22.2865L15.103 22.2746C15.4835 21.5516 15.6539 20.9955 15.4042 21.0154C15.1505 21.0273 14.6075 21.635 14.2231 22.3858C12.6139 25.3054 11.7895 28.5745 11.8608 31.8079C11.9084 35.0453 12.7843 38.2271 14.2468 41.1665C16.1414 44.956 18.9951 48.2371 22.4711 50.5926C25.2296 52.4636 28.4202 53.7426 31.7456 54.1557C31.7852 53.8658 31.8249 53.5798 31.8605 53.2898C31.155 53.2024 30.4495 53.0753 29.752 52.9045V52.9005Z" fill="#8CA1D3"/>
<path d="M31.2739 56.0823C30.2355 55.9551 29.205 55.7804 28.1943 55.5142C27.1876 55.2441 26.1888 54.9263 25.2257 54.5172C24.0485 54.0366 23.0338 53.7267 22.8713 53.9571C22.7207 54.1756 23.5531 54.8866 24.7699 55.403C25.7845 55.8479 26.8348 56.2014 27.905 56.4993C28.9751 56.7893 30.073 56.9919 31.1748 57.1349C31.2303 57.1428 31.2858 57.1428 31.3413 57.1508C31.3889 56.7973 31.4325 56.4477 31.48 56.0942C31.4126 56.0862 31.3453 56.0823 31.2779 56.0783L31.2739 56.0823Z" fill="#8CA1D3"/>
<path d="M31.3611 54.5291C28.8641 54.1796 26.4702 53.3732 24.2506 52.2371C19.8115 49.9531 16.0502 46.4019 13.359 41.9689C10.8224 37.7822 9.64125 33.0751 9.99796 28.3878C10.3468 23.7006 12.269 19.1286 15.313 15.2358C15.4517 15.061 15.5349 14.914 15.5587 14.8266C15.5825 14.7432 15.5468 14.7114 15.4557 14.7432C15.2694 14.8107 14.9008 15.1563 14.6194 15.5138C14.4133 15.7601 14.227 16.0262 14.0407 16.2844C13.8544 16.5466 13.6681 16.8008 13.4898 17.063C13.1489 17.5992 12.7962 18.1117 12.5029 18.6638C11.8727 19.7363 11.3773 20.8605 10.9373 21.9766C10.5132 23.1048 10.1842 24.2488 9.93851 25.4047C9.71259 26.5646 9.55009 27.7205 9.50649 28.8883C9.30436 33.5597 10.5449 38.1873 13.1608 42.6164C14.5282 44.9044 16.181 46.9223 18.0319 48.6701C19.8908 50.4139 21.9478 51.8995 24.1912 53.0316C26.4266 54.1676 28.8443 54.9661 31.3611 55.3196C31.4364 55.3315 31.5078 55.3355 31.5831 55.3434C31.6187 55.0852 31.6544 54.8231 31.6901 54.5649C31.5831 54.553 31.4721 54.541 31.3651 54.5291H31.3611Z" fill="#8CA1D3"/>
<path d="M31.48 52.6383C31.1986 52.5907 30.937 52.5788 30.727 52.5907C30.5248 52.5907 30.3742 52.6264 30.3385 52.69C30.2513 52.8171 30.6596 53.0356 31.2105 53.115C31.4285 53.1547 31.6465 53.1905 31.8645 53.2262C31.8883 53.0475 31.912 52.8727 31.9358 52.6939C31.7852 52.6741 31.6306 52.6622 31.48 52.6383Z" fill="#8CA1D3"/>
<path d="M54.5198 27.3829C53.8936 24.6937 52.213 23.6132 51.4996 21.0114C50.0609 15.772 46.4977 12.483 41.5394 10.5922C39.0622 9.64286 36.4305 9.15825 33.8186 9.15825C32.5146 9.15825 31.2185 9.28536 29.9502 9.53561C28.6858 9.7938 27.4532 10.1672 26.28 10.6478C25.8163 10.8186 25.4834 11.0371 25.5706 11.1245C25.6221 11.2198 26.07 11.1523 26.5139 10.9894H26.28C28.8444 10.2466 31.5633 9.88516 34.2981 10.0441C35.4079 10.1076 36.5177 10.2546 37.6116 10.485C39.2128 10.8226 40.7824 11.335 42.2726 12.0183C43.0614 12.5545 43.8818 13.1225 44.6864 13.7541C45.491 14.3897 46.2956 15.0689 47.0764 15.8078C46.2678 15.1603 45.4117 14.5684 44.5318 14.0282C43.648 13.488 42.7245 13.0193 41.7772 12.6022C39.0186 11.4105 36.1808 10.9338 33.4856 11.0768C30.7905 11.2238 28.2459 11.9865 25.9352 13.2218C25.8757 13.2536 25.951 13.2973 25.9748 13.337C25.8123 13.4483 25.8163 13.5198 25.9828 13.5039C26.1294 13.4959 26.4068 13.3847 26.5733 13.2814C29.8075 12.0143 33.3707 11.6727 36.8149 12.336C40.2592 12.9915 43.5608 14.5843 46.359 16.8326C49.1532 19.0888 51.456 22.0045 52.9503 25.2974C54.0125 27.6212 54.5198 29.5994 54.7576 31.8477M54.278 24.5308C52.4152 20.4513 49.3712 16.773 45.8319 14.0441C48.3566 15.7879 50.5524 17.9925 52.2884 20.5109C54.0283 23.0293 55.2927 25.8853 55.9268 28.8923C55.5503 27.367 54.9954 25.8972 54.282 24.5308H54.278Z" fill="#8CA1D3"/>
<path d="M52.2487 16.8644C53.3941 18.3381 54.4405 19.9349 55.3481 21.5794C56.2518 23.2239 57.0167 24.9201 57.6747 26.5844C57.7421 26.7433 57.8055 26.8307 57.8213 26.7354C57.8332 26.6401 57.7936 26.4454 57.7183 26.2587C57.0643 24.6698 56.3192 23.0213 55.4313 21.4285C54.5435 19.8356 53.5328 18.2864 52.435 16.8604C52.3002 16.6896 52.1575 16.5784 52.1179 16.5903C52.0703 16.5903 52.1417 16.7293 52.2526 16.8684L52.2487 16.8644Z" fill="#8CA1D3"/>
<path d="M27.9803 58.0644C26.7238 57.7307 25.4952 57.3097 24.314 56.7933C23.1329 56.2809 21.9915 55.693 20.8975 55.0336C19.8076 54.3662 18.7612 53.6314 17.7624 52.8369C16.7597 52.0465 15.8164 51.1726 14.9206 50.251C14.0249 49.3295 13.1727 48.3483 12.3919 47.2996C10.3111 44.5628 8.76137 41.4525 7.67537 38.3939C7.59214 38.1278 7.49702 37.9927 7.46927 38.1039C7.44153 38.235 7.48513 38.5369 7.58421 38.8269C8.69002 42.0682 10.3309 45.0752 12.3879 47.7565C14.445 50.4337 16.9261 52.7972 19.7798 54.692C22.6296 56.5788 25.8598 58.0008 29.312 58.7039C29.9026 58.8271 30.505 58.9224 31.1074 59.0019C31.1193 58.8986 31.1312 58.7953 31.1471 58.692C30.073 58.553 29.0187 58.3425 27.9842 58.0684L27.9803 58.0644Z" fill="#8CA1D3"/>
<path d="M58.4752 28.5149C58.4633 28.6182 58.4871 28.8526 58.5307 29.0035C58.82 30.1436 59.0142 31.3273 59.1173 32.5309C59.1688 32.5309 59.2203 32.5269 59.2719 32.5229C59.1609 31.2042 58.9389 29.9171 58.602 28.6818C58.5584 28.5229 58.499 28.4474 58.4752 28.5149Z" fill="#8CA1D3"/>
<path d="M52.3597 31.0095C52.3319 31.1048 52.3359 31.3035 52.3755 31.4345C52.4826 31.8635 52.5658 32.3045 52.6292 32.7573C52.6926 32.7573 52.76 32.7573 52.8234 32.7573C52.7441 32.1734 52.6292 31.6093 52.4826 31.0691C52.439 30.9301 52.3795 30.9142 52.3597 31.0135V31.0095Z" fill="#8CA1D3"/>
<path d="M57.6984 28.082C57.3655 26.7433 56.9216 25.4285 56.3707 24.1574C54.8051 20.5268 52.5657 17.3291 49.8032 14.6757C48.4199 13.3489 46.894 12.1771 45.2531 11.1682C43.6043 10.1712 41.8326 9.35288 39.9658 8.76499C37.0091 7.83946 33.874 7.67263 30.7745 8.01027C28.1745 8.28038 25.4952 8.94771 23.4381 10.1592C22.0192 10.9815 20.7984 11.915 19.7243 12.912C18.6621 13.917 17.7426 14.9657 16.9142 16.0501C16.8112 16.1772 16.835 16.2209 16.942 16.1573C17.0331 16.1176 17.2036 15.9667 17.2868 15.8554C18.9396 13.7104 21.2424 11.6647 23.7037 10.1275C26.2562 8.9636 29.0068 8.22874 31.7971 8.05396C34.5874 7.86329 37.3896 8.18107 40.0768 8.92388C41.0994 9.30124 42.0704 9.7501 42.9939 10.2546C43.9095 10.7749 44.8013 11.3152 45.6415 11.9348C46.4857 12.5466 47.2983 13.1901 48.083 13.8852C48.8757 14.5724 49.6367 15.3033 50.3937 16.0779H50.3898C51.6898 17.4046 52.8511 18.8664 53.8301 20.4434C54.817 22.0203 55.6414 23.6966 56.2557 25.4563C56.8383 27.077 57.2426 28.7652 57.4685 30.4733C57.5597 31.1763 57.6231 31.8874 57.6509 32.5984C57.8768 32.5865 58.1027 32.5785 58.3286 32.5666C58.3207 32.4355 58.3207 32.3045 58.3128 32.1734C58.2256 30.791 58.0155 29.4246 57.6905 28.082H57.6984Z" fill="#8CA1D3"/>
</g>
<g opacity="0.8">
<path d="M35.0947 49.4884C35.4514 49.4447 35.7249 49.3295 35.6733 49.2222C35.6496 49.115 35.3245 49.0633 34.9877 49.0991L35.1502 49.1587C34.2227 49.1587 33.2913 49.0951 32.3678 48.96C32.348 49.1825 32.3242 49.4049 32.3004 49.6274C33.2398 49.675 34.1791 49.6274 35.0947 49.4884Z" fill="#FEFEFC"/>
<path d="M35.717 47.1209C35.7606 47.105 35.717 47.0454 35.7051 46.9978C35.8319 46.9382 35.8359 46.8667 35.7209 46.8389C35.6219 46.8111 35.4197 46.827 35.2969 46.8786C34.3813 47.0017 33.4578 47.0097 32.5343 46.9143C32.5185 47.1487 32.5026 47.3791 32.4828 47.6135C33.5926 47.6015 34.6786 47.4347 35.717 47.1288V47.1209Z" fill="#FEFEFC"/>
<path d="M48.8083 28.8963C48.1186 27.0969 47.2268 25.4404 46.1844 23.927C45.142 22.4136 43.9411 21.0313 42.5777 19.8356C41.2142 18.64 39.6883 17.6151 37.9999 16.8842C36.3154 16.1534 34.4724 15.7005 32.5659 15.6687C30.9726 15.6409 29.3833 15.8991 27.9049 16.4155C26.4186 16.916 25.0393 17.6628 23.7948 18.5566C22.0588 19.5615 20.4853 20.928 19.2724 22.5963C19.9938 21.496 20.8697 20.491 21.8527 19.6092C22.8356 18.7234 23.9097 17.9369 25.071 17.2815C27.6909 15.78 30.7586 14.9418 33.8263 15.1682C36.8901 15.3708 39.835 16.5704 42.2765 18.4016C43.0176 18.9578 43.7231 19.3073 43.9292 19.1206C44.0243 19.0253 43.9689 18.8068 43.7865 18.5367C43.6082 18.2626 43.299 17.9448 42.9146 17.6469C41.6225 16.6499 40.1996 15.8038 38.6618 15.1841C37.8928 14.8743 37.1002 14.6121 36.2876 14.4254C35.8834 14.3222 35.4712 14.2546 35.059 14.1792C34.6468 14.1315 34.2306 14.064 33.8144 14.0401C32.1418 13.909 30.4494 14.0798 28.8323 14.481C27.2152 14.8981 25.6814 15.5575 24.2704 16.3877C23.3826 16.92 22.5344 17.5158 21.7417 18.1673C20.949 18.8306 20.2039 19.5536 19.5221 20.3401C18.1666 21.9171 17.1044 23.7761 16.4544 25.7582C15.8044 27.7404 15.5785 29.8298 15.7053 31.8596C15.8321 33.8934 16.3078 35.8715 17.0529 37.7186C18.5392 41.4088 21.0719 44.6025 24.2704 46.8031C25.8716 47.8955 27.6433 48.7217 29.4942 49.1984C30.4217 49.4367 31.365 49.5757 32.3083 49.6234C32.3321 49.401 32.3519 49.1785 32.3757 48.9561C31.3769 48.8091 30.3821 48.5827 29.411 48.257C27.5402 47.6373 25.7567 46.684 24.1871 45.4486C23.7432 44.9163 23.3033 44.3443 22.8554 43.7524C22.4194 43.1526 21.9835 42.529 21.5673 41.8815C22.0389 42.4535 22.5423 43.0057 23.0734 43.526C23.6124 44.0384 24.1753 44.5231 24.7658 44.9719C26.486 46.2669 28.3845 47.0732 30.2592 47.4109C31.0123 47.5459 31.7574 47.6055 32.4946 47.5976C32.5104 47.3632 32.5303 47.1328 32.5461 46.8985C31.1113 46.7475 29.6845 46.3384 28.3369 45.7068C26.1134 44.674 24.1237 43.0295 22.5146 41.0593C20.9133 39.0811 19.6926 36.7534 19.0426 34.2787C18.4005 31.804 18.3252 29.1704 19.0346 26.6996C19.0544 26.6559 19.0703 26.6122 19.0822 26.5606C19.7679 24.6023 20.9014 22.8267 22.4075 21.3689C22.6771 21.1147 22.8396 20.8287 22.7643 20.7373C22.7405 20.7175 22.7048 20.7055 22.6612 20.7095C23.2716 20.1216 23.9295 19.5695 24.6231 19.065C24.9164 18.8624 25.1503 18.6598 25.2652 18.4851C26.0975 18.0918 26.9378 17.7621 27.7939 17.5317C28.6461 17.3053 29.5022 17.1583 30.3464 17.0987C30.061 17.1464 29.7756 17.2219 29.4903 17.2815C29.2089 17.3649 28.9235 17.4404 28.6461 17.5277C26.3552 18.2944 24.2664 19.6688 22.6612 21.361C21.8606 22.211 21.1868 23.1445 20.6676 24.1296C20.1484 25.1147 19.7956 26.1594 19.5895 27.2081C19.1694 29.3094 19.4072 31.4345 20.0374 33.3253C20.6795 35.2241 21.7258 36.9043 22.9624 38.2469C23.0536 38.3343 23.117 38.3264 23.1091 38.2231C23.117 38.1397 23.0496 37.9967 22.9545 37.8934C21.8804 36.5389 21.0164 34.95 20.5011 33.234C19.9859 31.5219 19.8234 29.6828 20.1246 27.8794C20.4218 26.08 21.1987 24.3203 22.4234 22.8029C23.6442 21.2855 25.293 19.9866 27.1241 19.0809C28.6936 18.6876 30.39 18.3659 32.1141 18.3619C33.8382 18.354 35.598 18.7035 37.1438 19.4106C37.5005 19.5576 37.8493 19.6251 37.9444 19.5139C38.0435 19.4066 37.8255 19.1564 37.4688 18.9895C36.3114 18.3977 35.0471 18.0163 33.751 17.8495C35.3721 18.0322 36.9614 18.5685 38.4121 19.3947C39.1532 19.9111 39.8429 20.495 40.485 21.1345C40.592 21.2497 40.7307 21.349 40.8615 21.4245C40.9883 21.5079 41.1152 21.5596 41.2063 21.5596C41.2459 21.5596 41.2737 21.5437 41.2896 21.5238C42.7877 22.9062 44.0323 24.5546 44.9835 26.3262C45.9347 28.0979 46.6125 29.9966 46.9296 31.9072C46.9692 32.1456 47.0049 32.3839 47.0326 32.6262C47.3418 32.6461 47.6509 32.662 47.9561 32.6779L47.421 29.8854C46.5927 26.9976 45.1143 24.3004 43.1246 22.068C41.135 19.8475 38.5746 18.0799 35.6733 17.3132C34.2306 16.7492 32.6373 16.4552 30.9924 16.4632C31.2421 16.4473 31.4918 16.4235 31.7376 16.4155C31.9833 16.4155 32.237 16.4115 32.4867 16.4115C34.3376 16.4513 36.1331 16.8922 37.7779 17.6151C39.4267 18.3341 40.9328 19.3351 42.2725 20.5149C44.9558 22.8823 47.0485 25.8893 48.4674 29.3531C48.9153 30.4613 49.2561 31.5934 49.4939 32.7374C49.6406 32.7374 49.7872 32.7414 49.9339 32.7454C49.6882 31.4623 49.3116 30.1793 48.8162 28.8883L48.8083 28.8963ZM22.0033 43.4386C20.5051 41.8021 19.2843 39.9232 18.3965 37.8894C17.5127 35.8596 16.9578 33.6709 16.8626 31.4385C16.9657 32.5746 17.2075 33.6868 17.5721 34.7434C18.3965 37.8815 20.0057 40.8924 22.0033 43.4347V43.4386Z" fill="#FEFEFC"/>
<path d="M48.0671 33.2975C48.0473 33.0989 48.0235 32.8963 47.9957 32.6977C47.9799 32.6977 47.964 32.6977 47.9521 32.6977L48.0671 33.3015V33.2975Z" fill="#FEFEFC"/>
<path d="M47.9522 32.6937C47.9522 32.6937 47.9839 32.6937 47.9958 32.6937C47.8769 31.7563 47.6788 30.8228 47.4132 29.9013L47.9483 32.6937H47.9522Z" fill="#FEFEFC"/>
<path d="M17.3739 40.7653C16.1849 38.2708 15.3288 35.5418 14.7223 32.94C14.6906 32.8169 14.647 32.7454 14.6153 32.8129C14.5836 32.8844 14.5836 33.0354 14.6153 33.1784C15.2336 35.6809 16.0739 38.3502 17.2074 40.7613C17.2828 40.9044 17.366 41.0076 17.4135 40.9957C17.4571 40.9997 17.4373 40.8845 17.3739 40.7653Z" fill="#FEFEFC"/>
<path d="M53.303 32.7732C53.303 32.7732 53.3069 32.7533 53.3109 32.7454C53.2792 32.7454 53.2514 32.7454 53.2197 32.7454C53.2475 32.797 53.2752 32.8129 53.303 32.7692V32.7732Z" fill="#FEFEFC"/>
<path d="M53.3188 32.221C52.8669 29.6629 52.0465 27.2438 50.9328 24.9797C49.8151 22.7195 48.3961 20.6142 46.6641 18.7353C44.936 16.8604 42.8711 15.2159 40.489 14.0083C38.1149 12.8008 35.3999 12.0619 32.6374 12.0341C30.0135 11.9944 27.3976 12.5903 25.079 13.6111C23.9177 14.1156 22.8357 14.7392 21.8012 15.4423C20.7747 16.1494 19.8195 16.9319 18.9317 17.8336C17.1639 19.6171 15.745 21.8217 14.9404 24.1812C14.12 26.5407 13.9139 29.0115 14.1874 31.2796C14.2032 31.4028 14.2468 31.4663 14.2825 31.4186C14.3142 31.3392 14.3301 31.1684 14.3182 31.0492C14.0804 28.8129 14.3182 26.3938 15.1346 24.0899C15.9432 21.782 17.3463 19.641 19.0823 17.9011C19.5143 17.4602 19.9741 17.059 20.4378 16.6618C20.9134 16.2844 21.393 15.9071 21.9043 15.5655C22.9229 14.8783 23.9851 14.2745 25.1345 13.7819C27.4175 12.7889 30.0017 12.2248 32.5938 12.2923C33.6441 12.3082 34.6865 12.4433 35.6932 12.6498C36.7039 12.8524 37.6829 13.1503 38.6143 13.5198C40.489 14.2506 42.1814 15.2675 43.7034 16.4473C45.2135 17.639 46.5611 18.9935 47.7382 20.491C48.3327 21.2338 48.8757 22.0164 49.387 22.8267C49.8983 23.637 50.37 24.4792 50.7901 25.353C51.9118 27.6569 52.6609 30.1316 53.1444 32.5428C53.1642 32.6381 53.188 32.7136 53.2118 32.7613C53.2435 32.7613 53.2712 32.7613 53.3029 32.7613C53.3505 32.654 53.3465 32.4475 53.3109 32.233L53.3188 32.221Z" fill="#FEFEFC"/>
<path d="M46.3589 19.0173C44.4287 17.0829 42.1457 15.482 39.5695 14.3658C36.9972 13.2616 34.1118 12.6459 31.155 12.7531C29.5617 12.8008 27.9961 13.0987 26.5217 13.6191C25.0433 14.1434 23.6799 14.8783 22.3997 15.8237C21.5436 16.4592 20.7905 17.1424 20.0731 17.8574C19.3716 18.5883 18.7216 19.347 18.135 20.1534C17.5524 20.9677 17.0252 21.8138 16.5496 22.7115C16.0819 23.6132 15.6657 24.5586 15.309 25.5556C15.2615 25.6867 15.2417 25.8257 15.2694 25.8734C15.3051 25.8893 15.3685 25.8059 15.416 25.6748C16.2048 23.5338 17.2749 21.5715 18.6463 19.8674C20.0137 18.1474 21.6189 16.6856 23.5174 15.486C25.2732 14.3897 27.2549 13.5873 29.3437 13.198C30.3861 13.0073 31.4483 12.916 32.5105 12.92C33.5727 12.9239 34.6231 13.051 35.6536 13.2536C37.7146 13.6628 39.6527 14.4532 41.4204 15.4701C43.1921 16.483 44.7854 17.7422 46.2559 19.1365C46.3748 19.2636 46.4778 19.3113 46.5095 19.2914C46.5373 19.2517 46.462 19.1206 46.3549 19.0134L46.3589 19.0173Z" fill="#FEFEFC"/>
<path d="M26.9021 20.0898C25.8835 20.5665 24.9006 21.1981 24.0167 21.9449C23.5728 22.3143 23.1765 22.7195 22.796 23.1405C22.4353 23.5735 22.0905 24.0144 21.813 24.4871C20.6478 26.3541 20.2831 28.5269 20.628 30.37C20.6557 30.4693 20.7033 30.4852 20.7429 30.4216C20.7825 30.362 20.7944 30.231 20.7825 30.1396C20.6438 29.2419 20.6795 28.2766 20.8935 27.3114C21.1075 26.3461 21.5237 25.4007 22.0905 24.5229C22.6573 23.637 23.4024 22.8426 24.2387 22.1395C25.0869 21.4325 26.0223 20.8366 26.9774 20.3599C27.1598 20.2646 27.2945 20.1335 27.2826 20.062C27.2549 19.9866 27.0964 19.9905 26.8982 20.0898H26.9021Z" fill="#FEFEFC"/>
</g>
<path d="M47.0406 59.2243L44.5 44.5231L42.1893 59.2243H40.4771L43.6161 39.2042C42.4192 39.4704 41.4957 40.0463 40.8496 40.9361C40.2036 41.8219 39.8786 43.0652 39.8786 44.67C39.8786 45.3175 39.9222 45.8458 40.0054 46.2589C40.0926 46.6681 40.1917 46.9978 40.3066 47.244C40.4216 47.4903 40.5405 47.6691 40.6633 47.7723C40.7862 47.8756 40.8774 47.9471 40.9329 47.9868C39.9063 47.9868 39.078 47.7247 38.4517 47.2003C37.8255 46.676 37.5084 45.8538 37.5084 44.7256C37.5084 43.7922 37.7383 42.8984 38.1941 42.0523C38.6499 41.2062 39.2325 40.4634 39.9341 39.8358C40.6396 39.2082 41.4124 38.7077 42.2606 38.3343C43.1088 37.9609 43.9293 37.7782 44.7299 37.7782C45.0351 37.7782 45.3323 37.806 45.6296 37.8656C45.9229 37.9212 46.2043 38.0284 46.4698 38.1794L49.3235 54.7953L52.6608 38.1794H55.9148L57.5121 59.2283H54.2581L53.1166 44.241L50.0925 59.2283H47.0406V59.2243Z" fill="#FEFEFC"/>
<path d="M64.904 44.7813C65.6451 44.7813 66.2832 44.8964 66.8144 45.1229C67.3455 45.3493 67.7854 45.671 68.1263 46.0802C68.4671 46.4893 68.7406 46.97 68.9388 47.5261C69.1369 48.0782 69.2876 48.6701 69.3827 49.2977H69.5531C70.3537 49.2977 71.083 49.1348 71.7489 48.8131C72.4147 48.4873 72.9855 48.0782 73.4611 47.5817L73.8892 48.3523C73.5087 48.964 72.9062 49.4685 72.0778 49.8697C71.2495 50.2709 70.3973 50.545 69.5254 50.6999C69.5254 50.8905 69.5293 51.0812 69.5412 51.2719C69.5492 51.4626 69.5571 51.6612 69.5571 51.8717C69.5571 54.2153 69.129 56.0584 68.2729 57.3931C67.4168 58.7278 66.2198 59.3951 64.678 59.3951C64.0518 59.3951 63.4177 59.2799 62.7795 59.0535C62.1414 58.8231 61.5667 58.4418 61.0515 57.9095C60.5362 57.3772 60.124 56.69 59.8109 55.8519C59.4978 55.0137 59.3392 53.973 59.3392 52.7337C59.3392 51.8955 59.4304 51.0097 59.6088 50.0723C59.7911 49.1388 60.0923 48.2808 60.5203 47.4983C60.9484 46.7157 61.5191 46.0683 62.2326 45.5519C62.946 45.0355 63.8338 44.7813 64.9 44.7813H64.904ZM65.2052 57.2223C66.2079 57.2223 66.9451 56.7218 67.4208 55.7208C67.8924 54.7198 68.1302 53.3057 68.1302 51.4745V51.1329C68.1302 51.0177 68.1223 50.9025 68.1025 50.7912C67.5516 50.7515 67.1552 50.6284 66.9174 50.4179C66.6796 50.2073 66.5607 49.8538 66.5607 49.3612C66.5607 48.9243 66.6558 48.6145 66.8461 48.4317C67.0363 48.249 67.3217 48.1497 67.7022 48.1298C67.4763 47.4506 67.1869 46.9819 66.8381 46.7197C66.4893 46.4575 66.097 46.3265 65.661 46.3265C65.0744 46.3265 64.579 46.5211 64.1707 46.9143C63.7625 47.3076 63.4335 47.8081 63.1759 48.4198C62.9183 49.0315 62.7359 49.7068 62.621 50.4417C62.5061 51.1766 62.4506 51.8995 62.4506 52.6066C62.4506 53.544 62.5338 54.3067 62.7042 54.9025C62.8747 55.4944 63.0926 55.9631 63.3582 56.3087C63.6238 56.6543 63.917 56.8926 64.2381 57.0237C64.5591 57.1587 64.8802 57.2223 65.2052 57.2223Z" fill="#FEFEFC"/>
<path d="M76.8618 44.7813C77.603 44.7813 78.2411 44.8964 78.7722 45.1229C79.3033 45.3493 79.7433 45.671 80.0841 46.0802C80.425 46.4893 80.6985 46.97 80.8967 47.5261C81.0948 48.0782 81.2455 48.6701 81.3406 49.2977H81.511C82.3116 49.2977 83.0409 49.1348 83.7068 48.8131C84.3726 48.4873 84.9434 48.0782 85.419 47.5817L85.847 48.3523C85.4666 48.964 84.8641 49.4685 84.0357 49.8697C83.2074 50.2709 82.3552 50.545 81.4833 50.6999C81.4833 50.8905 81.4872 51.0812 81.4991 51.2719C81.507 51.4626 81.515 51.6612 81.515 51.8717C81.515 54.2153 81.0869 56.0584 80.2308 57.3931C79.3747 58.7278 78.1777 59.3951 76.6359 59.3951C76.0097 59.3951 75.3755 59.2799 74.7374 59.0535C74.0993 58.8231 73.5246 58.4418 73.0093 57.9095C72.4941 57.3772 72.0819 56.69 71.7688 55.8519C71.4557 55.0137 71.2971 53.973 71.2971 52.7337C71.2971 51.8955 71.3883 51.0097 71.5666 50.0723C71.749 49.1388 72.0502 48.2808 72.4782 47.4983C72.9063 46.7157 73.477 46.0683 74.1905 45.5519C74.9039 45.0355 75.7917 44.7813 76.8579 44.7813H76.8618ZM77.1631 57.2223C78.1658 57.2223 78.903 56.7218 79.3786 55.7208C79.8503 54.7198 80.0881 53.3057 80.0881 51.4745V51.1329C80.0881 51.0177 80.0802 50.9025 80.0604 50.7912C79.5094 50.7515 79.1131 50.6284 78.8753 50.4179C78.6375 50.2073 78.5186 49.8538 78.5186 49.3612C78.5186 48.9243 78.6137 48.6145 78.8039 48.4317C78.9942 48.249 79.2796 48.1497 79.6601 48.1298C79.4341 47.4506 79.1448 46.9819 78.796 46.7197C78.4472 46.4575 78.0549 46.3265 77.6189 46.3265C77.0323 46.3265 76.5368 46.5211 76.1286 46.9143C75.7204 47.3076 75.3914 47.8081 75.1338 48.4198C74.8761 49.0315 74.6938 49.7068 74.5789 50.4417C74.4639 51.1766 74.4085 51.8995 74.4085 52.6066C74.4085 53.544 74.4917 54.3067 74.6621 54.9025C74.8325 55.4944 75.0505 55.9631 75.3161 56.3087C75.5816 56.6543 75.8749 56.8926 76.196 57.0237C76.517 57.1548 76.8381 57.2223 77.1631 57.2223Z" fill="#FEFEFC"/>
<path d="M86.4495 44.9242V47.0971C86.7348 46.5807 87.0242 46.1676 87.3214 45.8538C87.6147 45.5399 87.916 45.3056 88.2211 45.1546C88.5263 45.0037 88.8157 44.9004 89.0931 44.8528C89.3706 44.8051 89.6321 44.7813 89.8779 44.7813C90.734 44.7813 91.4236 44.9441 91.9468 45.2659C92.47 45.5916 92.8663 46.0047 93.1319 46.5092C93.3974 47.0136 93.5758 47.5658 93.659 48.1696C93.7462 48.7694 93.7859 49.3454 93.7859 49.9015C93.7859 50.2431 93.7779 50.6204 93.7581 51.0296C93.7383 51.4387 93.7185 51.8598 93.7026 52.2888C93.6868 52.7178 93.663 53.1468 93.6471 53.5758C93.6273 54.0048 93.6194 54.402 93.6194 54.7635C93.6194 54.9144 93.6273 55.1289 93.6471 55.407C93.667 55.685 93.7145 55.9551 93.7898 56.2213C93.8651 56.4874 93.988 56.7218 94.1624 56.9204C94.3328 57.119 94.5786 57.2223 94.9036 57.2223C95.3395 57.2223 95.7359 56.976 96.0886 56.4795C96.4414 55.983 96.7307 55.1925 96.9606 54.1041H98.0149C97.8048 55.3037 97.5393 56.2531 97.2143 56.9482C96.8893 57.6433 96.5484 58.1717 96.1877 58.5371C95.8271 58.8986 95.4624 59.1329 95.1017 59.2362C94.7411 59.3395 94.4081 59.3951 94.1029 59.3951C93.4926 59.3951 92.9813 59.2759 92.5612 59.0376C92.141 58.7993 91.8002 58.4815 91.5346 58.0803C91.2691 57.6791 91.0748 57.2143 90.948 56.6781C90.8251 56.1458 90.7617 55.5897 90.7617 55.0177C90.7617 54.8469 90.7657 54.5251 90.7776 54.0604C90.7855 53.5917 90.7974 53.0912 90.8053 52.5589C90.8133 52.0266 90.8251 51.5182 90.8331 51.0415C90.841 50.5648 90.8489 50.2312 90.8489 50.0405C90.8489 49.4288 90.8014 48.9243 90.7062 48.5231C90.6111 48.1219 90.4764 47.8081 90.3059 47.5777C90.1355 47.3473 89.9413 47.1884 89.7193 47.0931C89.5013 46.9978 89.2675 46.9501 89.0218 46.9501C88.4312 46.9501 87.9239 47.1884 87.4958 47.6651C87.0678 48.1418 86.719 48.9442 86.4534 50.0683V59.2203H83.5997V44.9203H86.4534L86.4495 44.9242Z" fill="#FEFEFC"/>
<path d="M99.8024 39.2042V54.6483C99.8024 54.839 99.8103 55.0773 99.8301 55.3633C99.8499 55.6493 99.9015 55.9313 99.9886 56.2054C100.076 56.4835 100.203 56.7218 100.373 56.9204C100.544 57.119 100.781 57.2223 101.087 57.2223C102.018 57.2223 102.704 56.1816 103.14 54.1041H104.194C103.984 55.3037 103.718 56.2531 103.393 56.9482C103.068 57.6433 102.727 58.1717 102.367 58.5371C102.006 58.8986 101.633 59.1329 101.253 59.2362C100.873 59.3395 100.532 59.3951 100.226 59.3951C99.5606 59.3951 99.0176 59.268 98.6014 59.0098C98.1853 58.7516 97.8484 58.4219 97.6026 58.0247C97.3569 57.6235 97.1825 57.1786 97.0874 56.6821C96.9923 56.1855 96.9447 55.7089 96.9447 55.2521V39.6094L99.7984 39.2082L99.8024 39.2042Z" fill="#FEFEFC"/>
<path d="M102.601 40.805C102.601 40.2887 102.783 39.8438 103.144 39.4624C103.504 39.0811 103.952 38.8904 104.483 38.8904C105.014 38.8904 105.442 39.0811 105.823 39.4624C106.203 39.8438 106.394 40.2926 106.394 40.805C106.394 41.3175 106.203 41.7862 105.823 42.1477C105.442 42.5091 104.995 42.6919 104.483 42.6919C103.972 42.6919 103.504 42.5091 103.144 42.1477C102.783 41.7862 102.601 41.3373 102.601 40.805ZM105.97 44.9243V54.6483C105.97 54.839 105.977 55.0773 105.997 55.3633C106.017 55.6493 106.069 55.9313 106.156 56.2054C106.243 56.4835 106.37 56.7218 106.54 56.9204C106.711 57.119 106.949 57.2223 107.254 57.2223C108.185 57.2223 108.871 56.1816 109.307 54.1041H110.361C110.151 55.3037 109.885 56.2531 109.56 56.9482C109.235 57.6434 108.895 58.1717 108.534 58.5371C108.173 58.8986 107.801 59.1329 107.42 59.2362C107.04 59.3395 106.699 59.3951 106.394 59.3951C105.728 59.3951 105.185 59.268 104.769 59.0098C104.352 58.7516 104.016 58.4219 103.77 58.0247C103.524 57.6235 103.35 57.1786 103.255 56.6821C103.159 56.1855 103.112 55.7089 103.112 55.2521V44.9282H105.966L105.97 44.9243Z" fill="#FEFEFC"/>
<path d="M112.161 40.5747V44.9203H114.356V45.9491H112.161V54.6523C112.161 54.8787 112.164 55.1408 112.176 55.4388C112.184 55.7327 112.232 56.0147 112.319 56.2809C112.406 56.547 112.529 56.7695 112.692 56.9522C112.854 57.1309 113.096 57.2223 113.421 57.2223C113.572 57.2223 113.758 57.2024 113.976 57.1667C114.194 57.127 114.36 57.0912 114.475 57.0515C114.495 57.1468 114.507 57.2342 114.519 57.3097C114.527 57.3852 114.535 57.4725 114.535 57.5679C114.535 57.8936 114.463 58.1717 114.321 58.41C114.178 58.6483 113.992 58.839 113.766 58.982C113.536 59.125 113.282 59.2283 112.997 59.2958C112.711 59.3633 112.426 59.3951 112.141 59.3951C111.57 59.3951 111.102 59.2759 110.742 59.0376C110.381 58.7993 110.088 58.4855 109.87 58.0962C109.652 57.7069 109.505 57.2739 109.426 56.7973C109.35 56.3206 109.311 55.8439 109.311 55.3712V45.9531H108.34V44.9243H109.311V40.9759L112.164 40.5747H112.161Z" fill="#FEFEFC"/>
<path d="M131.023 59.2243L128.482 44.5231L126.171 59.2243H124.459L127.598 39.2042C126.401 39.4704 125.478 40.0463 124.832 40.9361C124.186 41.8259 123.861 43.0652 123.861 44.67C123.861 45.3175 123.904 45.8458 123.988 46.2589C124.075 46.6681 124.174 46.9978 124.289 47.244C124.404 47.4903 124.523 47.6691 124.645 47.7723C124.768 47.8756 124.86 47.9471 124.915 47.9868C123.888 47.9868 123.06 47.7247 122.434 47.2003C121.808 46.676 121.491 45.8538 121.491 44.7256C121.491 43.7922 121.72 42.8984 122.176 42.0523C122.632 41.2062 123.215 40.4634 123.916 39.8358C124.622 39.2082 125.395 38.7077 126.243 38.3343C127.087 37.9609 127.911 37.7782 128.712 37.7782C129.017 37.7782 129.314 37.806 129.612 37.8656C129.905 37.9212 130.186 38.0284 130.452 38.1794L133.306 54.7953L136.643 38.1794H139.897L141.494 59.2283H138.24L137.099 44.241L134.075 59.2283H131.023V59.2243Z" fill="#FEFEFC"/>
<path d="M148.886 44.7813C149.627 44.7813 150.265 44.8964 150.797 45.1229C151.328 45.3493 151.768 45.671 152.108 46.0802C152.449 46.4893 152.723 46.97 152.921 47.5261C153.119 48.0782 153.27 48.6701 153.365 49.2977H153.535C154.336 49.2977 155.065 49.1348 155.731 48.8131C156.397 48.4873 156.968 48.0782 157.443 47.5817L157.871 48.3523C157.491 48.964 156.888 49.4685 156.06 49.8697C155.232 50.2709 154.38 50.545 153.508 50.6999C153.508 50.8905 153.512 51.0812 153.523 51.2719C153.531 51.4626 153.539 51.6612 153.539 51.8717C153.539 54.2153 153.111 56.0584 152.255 57.3931C151.399 58.7278 150.202 59.3951 148.66 59.3951C148.034 59.3951 147.4 59.2799 146.762 59.0535C146.124 58.8231 145.549 58.4418 145.034 57.9095C144.518 57.3772 144.106 56.69 143.793 55.8519C143.48 55.0137 143.321 53.973 143.321 52.7337C143.321 51.8955 143.413 51.0097 143.591 50.0723C143.773 49.1388 144.074 48.2808 144.503 47.4983C144.931 46.7157 145.501 46.0683 146.215 45.5519C146.928 45.0355 147.816 44.7813 148.882 44.7813H148.886ZM149.187 57.2223C150.19 57.2223 150.927 56.7218 151.403 55.7208C151.875 54.7198 152.112 53.3057 152.112 51.4745V51.1329C152.112 51.0177 152.104 50.9025 152.085 50.7912C151.534 50.7515 151.137 50.6284 150.9 50.4179C150.662 50.2073 150.543 49.8538 150.543 49.3612C150.543 48.9243 150.638 48.6145 150.828 48.4317C151.018 48.249 151.304 48.1497 151.684 48.1298C151.458 47.4506 151.169 46.9819 150.82 46.7197C150.472 46.4575 150.079 46.3265 149.643 46.3265C149.057 46.3265 148.561 46.5211 148.153 46.9143C147.745 47.3076 147.416 47.8081 147.158 48.4198C146.9 49.0315 146.718 49.7068 146.603 50.4417C146.488 51.1766 146.433 51.8995 146.433 52.6066C146.433 53.544 146.516 54.3067 146.686 54.9025C146.857 55.4944 147.075 55.9631 147.34 56.3087C147.606 56.6543 147.899 56.8926 148.22 57.0237C148.541 57.1548 148.862 57.2223 149.187 57.2223Z" fill="#FEFEFC"/>
<path d="M158.474 44.9242V46.8985C158.969 45.9848 159.492 45.4009 160.043 45.1546C160.594 44.9084 161.117 44.7813 161.613 44.7813C162.108 44.7813 162.54 44.8488 162.913 44.9799C163.285 45.1149 163.603 45.2937 163.868 45.5241C164.134 45.7544 164.36 46.0206 164.538 46.3265C164.72 46.6323 164.867 46.966 164.982 47.3275C165.247 46.7555 165.525 46.3026 165.81 45.9689C166.096 45.6353 166.381 45.3771 166.666 45.1983C166.952 45.0156 167.233 44.9044 167.507 44.8567C167.784 44.8091 168.034 44.7852 168.264 44.7852C169.12 44.7852 169.809 44.9481 170.333 45.2698C170.856 45.5956 171.252 46.0087 171.518 46.5131C171.783 47.0176 171.962 47.5698 172.045 48.1735C172.128 48.7773 172.172 49.3493 172.172 49.9054C172.172 50.247 172.16 50.6244 172.144 51.0335C172.124 51.4427 172.104 51.8637 172.088 52.2927C172.069 52.7217 172.049 53.1508 172.033 53.5798C172.013 54.0088 172.005 54.406 172.005 54.7674C172.005 54.9184 172.013 55.1329 172.033 55.411C172.053 55.689 172.1 55.9591 172.176 56.2253C172.251 56.4914 172.374 56.7258 172.548 56.9244C172.719 57.123 172.968 57.2263 173.289 57.2263C173.725 57.2263 174.122 56.98 174.474 56.4835C174.827 55.9869 175.116 55.1965 175.346 54.1081H176.401C176.191 55.3077 175.925 56.257 175.6 56.9522C175.275 57.6473 174.934 58.1756 174.573 58.5411C174.213 58.9025 173.848 59.1369 173.487 59.2402C173.127 59.3435 172.794 59.3991 172.489 59.3991C171.878 59.3991 171.367 59.2799 170.947 59.0416C170.527 58.8032 170.186 58.4855 169.92 58.0843C169.655 57.6831 169.461 57.2183 169.334 56.6821C169.211 56.1498 169.147 55.5937 169.147 55.0217C169.147 54.8509 169.151 54.5291 169.163 54.0644C169.171 53.5956 169.183 53.0951 169.191 52.5629C169.199 52.0306 169.211 51.5221 169.219 51.0455C169.227 50.5688 169.235 50.2351 169.235 50.0445C169.235 49.4327 169.187 48.9283 169.092 48.5271C168.997 48.1259 168.862 47.8121 168.692 47.5817C168.521 47.3513 168.327 47.1924 168.105 47.0971C167.887 47.0017 167.653 46.9541 167.407 46.9541C166.817 46.9541 166.337 47.1924 165.965 47.6691C165.592 48.1457 165.331 48.9481 165.18 50.0723V59.2243H162.326V49.6711C162.326 49.3295 162.31 48.9958 162.283 48.6701C162.255 48.3443 162.184 48.0544 162.069 47.7962C161.954 47.538 161.791 47.3354 161.585 47.1805C161.375 47.0295 161.09 46.9501 160.729 46.9501C160.119 46.9501 159.659 47.2043 159.346 47.7088C159.033 48.2133 158.743 48.9998 158.474 50.0683V59.2203H155.62V44.9203H158.474V44.9242Z" fill="#FEFEFC"/>
<path d="M184.327 48.4993C184.327 49.8339 183.781 50.9501 182.687 51.8439C181.593 52.7416 180.075 53.2938 178.137 53.5043C178.212 54.2669 178.351 54.8866 178.549 55.3633C178.747 55.84 178.993 56.2173 179.278 56.4914C179.563 56.7695 179.892 56.9601 180.261 57.0634C180.634 57.1667 181.018 57.2223 181.418 57.2223C182.33 57.2223 183.186 56.984 183.987 56.5073C184.787 56.0306 185.433 55.2282 185.929 54.1041H186.84C186.595 54.8111 186.25 55.4825 185.814 56.122C185.378 56.7615 184.863 57.3216 184.272 57.8102C183.681 58.2948 183.043 58.6841 182.362 58.9701C181.676 59.2561 180.974 59.3991 180.249 59.3991C179.583 59.3991 178.941 59.2839 178.323 59.0575C177.705 58.8271 177.158 58.4537 176.682 57.9293C176.206 57.405 175.822 56.7218 175.525 55.8836C175.231 55.0455 175.081 54.0167 175.081 52.7932C175.081 51.9909 175.172 51.1249 175.35 50.1914C175.533 49.258 175.834 48.388 176.262 47.5896C176.69 46.7872 177.253 46.1199 177.946 45.5876C178.64 45.0553 179.5 44.7852 180.53 44.7852C181.006 44.7852 181.466 44.8369 181.914 44.9441C182.362 45.0474 182.766 45.2381 183.127 45.5161C183.487 45.7942 183.777 46.1715 183.999 46.6442C184.217 47.1209 184.327 47.7406 184.327 48.5032V48.4993ZM178.105 52.3881C179.456 52.1776 180.527 51.7009 181.315 50.9581C182.104 50.2153 182.5 49.2977 182.5 48.2133C182.5 47.4903 182.377 46.97 182.128 46.6561C181.878 46.3423 181.529 46.1834 181.073 46.1834C180.578 46.1834 180.146 46.3741 179.773 46.7554C179.401 47.1368 179.092 47.6293 178.846 48.2292C178.6 48.829 178.414 49.4963 178.291 50.2312C178.168 50.966 178.105 51.685 178.105 52.3921V52.3881Z" fill="#FEFEFC"/>
<path d="M188.751 44.9242V47.0971C189.036 46.5807 189.325 46.1676 189.623 45.8538C189.916 45.5399 190.217 45.3056 190.522 45.1546C190.828 45.0037 191.117 44.9004 191.394 44.8528C191.672 44.8051 191.933 44.7813 192.179 44.7813C193.035 44.7813 193.725 44.9441 194.248 45.2659C194.771 45.5916 195.168 46.0047 195.433 46.5092C195.699 47.0136 195.877 47.5658 195.96 48.1696C196.048 48.7694 196.087 49.3454 196.087 49.9015C196.087 50.2431 196.079 50.6204 196.059 51.0296C196.04 51.4387 196.02 51.8598 196.004 52.2888C195.988 52.7178 195.964 53.1468 195.948 53.5758C195.929 54.0048 195.921 54.402 195.921 54.7635C195.921 54.9144 195.929 55.1289 195.948 55.407C195.968 55.685 196.016 55.9551 196.091 56.2213C196.166 56.4874 196.289 56.7218 196.464 56.9204C196.634 57.119 196.88 57.2223 197.205 57.2223C197.641 57.2223 198.037 56.976 198.39 56.4795C198.743 55.983 199.032 55.1925 199.262 54.1041H200.316C200.106 55.3037 199.841 56.2531 199.516 56.9482C199.191 57.6433 198.85 58.1717 198.489 58.5371C198.128 58.8986 197.764 59.1329 197.403 59.2362C197.042 59.3395 196.709 59.3951 196.404 59.3951C195.794 59.3951 195.283 59.2759 194.862 59.0376C194.442 58.7993 194.101 58.4815 193.836 58.0803C193.57 57.6791 193.376 57.2143 193.249 56.6781C193.126 56.1458 193.063 55.5897 193.063 55.0177C193.063 54.8469 193.067 54.5251 193.079 54.0604C193.087 53.5917 193.099 53.0912 193.107 52.5589C193.115 52.0266 193.126 51.5182 193.134 51.0415C193.142 50.5648 193.15 50.2312 193.15 50.0405C193.15 49.4288 193.103 48.9243 193.008 48.5231C192.912 48.1219 192.778 47.8081 192.607 47.5777C192.437 47.3473 192.243 47.1884 192.021 47.0931C191.803 46.9978 191.569 46.9501 191.323 46.9501C190.732 46.9501 190.225 47.1884 189.797 47.6651C189.369 48.1418 189.02 48.9442 188.755 50.0683V59.2203H185.901V44.9203H188.755L188.751 44.9242Z" fill="#FEFEFC"/>
<path d="M202.108 40.5747V44.9203H204.303V45.9491H202.108V54.6523C202.108 54.8787 202.116 55.1408 202.135 55.4388C202.155 55.7327 202.207 56.0147 202.294 56.2809C202.381 56.547 202.512 56.7695 202.694 56.9522C202.877 57.1349 203.126 57.2223 203.451 57.2223C203.967 57.2223 204.454 56.9641 204.922 56.4517C205.389 55.9353 205.754 55.1567 206.02 54.1081H207.074C206.749 55.3077 206.404 56.257 206.031 56.9522C205.659 57.6473 205.274 58.1756 204.874 58.5411C204.474 58.9025 204.081 59.1369 203.689 59.2402C203.301 59.3435 202.944 59.3991 202.619 59.3991C201.933 59.3991 201.374 59.272 200.934 59.0138C200.498 58.7556 200.154 58.4299 199.908 58.0287C199.662 57.6314 199.488 57.1865 199.393 56.7019C199.298 56.2173 199.25 55.7367 199.25 55.26V45.957H198.279V44.9282H199.25V40.9798L202.104 40.5786L202.108 40.5747Z" fill="#FEFEFC"/>
<path d="M211.64 44.0345C212.096 45.8657 212.476 47.3592 212.781 48.5112C213.087 49.6631 213.328 50.6363 213.511 51.4268C213.693 52.2173 213.82 52.9204 213.895 53.5281C213.97 54.1398 214.01 54.8151 214.01 55.5579C214.01 56.3007 213.859 56.8608 213.554 57.3454C213.249 57.83 212.869 58.2273 212.413 58.5331C211.957 58.839 211.469 59.0575 210.958 59.1925C210.443 59.3276 209.987 59.3911 209.587 59.3911C208.751 59.3911 208.061 59.2561 207.518 58.9899C206.975 58.7238 206.543 58.3862 206.218 57.973C205.893 57.5639 205.667 57.1071 205.532 56.5987C205.397 56.0942 205.334 55.6135 205.334 55.1528C205.334 54.6562 205.433 54.2233 205.635 53.8499C205.837 53.4765 206.079 53.2143 206.365 53.0634C206.86 51.6334 207.343 50.2192 207.819 48.817C208.295 47.4148 208.608 46.0087 208.762 44.5985L211.644 44.0265L211.64 44.0345ZM210.982 55.2441C210.982 54.6523 210.95 54.1279 210.883 53.6711C210.815 53.2143 210.716 52.7098 210.582 52.1537C210.447 51.6016 210.28 50.9303 210.082 50.1358C209.884 49.3453 209.65 48.3285 209.385 47.0891C209.27 48.1577 209.036 49.1785 208.687 50.1477C208.334 51.1209 208.017 52.1219 207.732 53.1508C207.902 53.2659 208.049 53.4209 208.176 53.6235C208.303 53.826 208.362 54.0842 208.362 54.41C208.362 54.7714 208.267 55.0495 208.077 55.2401C207.886 55.4308 207.676 55.5261 207.45 55.5261C207.145 55.5261 206.888 55.3951 206.682 55.125C206.832 55.7923 207.098 56.3127 207.482 56.6821C207.863 57.0555 208.366 57.2382 208.996 57.2382C209.626 57.2382 210.09 57.0793 210.451 56.7655C210.812 56.4517 210.994 55.9393 210.994 55.2362L210.982 55.2441Z" fill="#FEFEFC"/>
</g>
<defs>
<clipPath id="clip0_193_552">
<rect width="214" height="64" fill="white"/>
</clipPath>
</defs>
</svg>
