<svg width="66" height="64" viewBox="0 0 66 64" fill="none" xmlns="http://www.w3.org/2000/svg">
<g opacity="0.8">
<path d="M65.2349 32.5669C65.2785 32.6662 65.33 32.6662 65.3696 32.551C65.3894 32.4914 65.4053 32.404 65.4172 32.2968C65.33 32.2968 65.2467 32.2968 65.1595 32.2968C65.1833 32.412 65.2071 32.5033 65.2309 32.5629L65.2349 32.5669Z" fill="#FEFEFC"/>
<path d="M31.7951 57.8303C32.0329 57.8104 32.0884 57.7548 31.91 57.6952C31.7871 57.6436 31.5176 57.6118 31.2679 57.6198C31.256 57.6992 31.2481 57.7786 31.2362 57.8541C31.4225 57.8462 31.6088 57.8382 31.7951 57.8263V57.8303Z" fill="#FEFEFC"/>
<path d="M65.4052 31.1051C65.3775 30.692 65.3101 30.2868 65.2546 29.8816C65.1952 29.4805 65.1397 29.0753 65.0723 28.6781C64.9058 27.8836 64.775 27.1011 64.561 26.3344C64.1924 24.7972 63.6574 23.3235 63.0826 21.9054C62.4762 20.4913 61.7787 19.1447 60.9899 17.8617C60.1814 16.5905 59.3055 15.379 58.3225 14.2549C54.3987 9.75036 49.1114 6.51298 42.6509 4.77712C39.3097 3.89528 35.9289 3.54175 32.6114 3.63709C29.298 3.74036 26.0321 4.27662 22.9247 5.31337C19.8213 6.34615 16.8685 7.8556 14.2368 9.86555C11.6169 11.8834 9.34187 14.4138 7.6019 17.3453C6.86866 18.5727 6.27017 19.8637 5.73114 21.1745L5.37046 22.1715C5.31101 22.3384 5.24759 22.5052 5.19211 22.672L5.04149 23.1805L4.74027 24.1934L4.49453 25.2182L4.37167 25.7307L4.27654 26.2471L4.0863 27.2759C4.03081 27.6214 3.99117 27.967 3.94757 28.3126C3.90794 28.6582 3.84849 28.9998 3.82867 29.3494C3.78111 30.0405 3.70184 30.7317 3.70184 31.4229L3.67409 32.4636C3.67409 32.8092 3.7058 33.1508 3.72166 33.4964C3.7058 34.4021 3.77318 35.2998 3.82471 36.2015L3.97136 37.552C4.01495 38.0049 4.11008 38.4498 4.17349 38.8986C4.47868 40.6901 4.94241 42.4617 5.58449 44.1737C4.70856 42.0049 4.10215 39.7248 3.72958 37.409C3.5433 36.2491 3.41647 35.0813 3.34513 33.9015C3.25 32.7218 3.28964 31.5301 3.36098 30.3504C3.53537 27.6731 3.9991 25.0077 4.80369 22.4416L5.13265 21.4883L5.29912 21.0116L5.48937 20.5429L5.86986 19.6094L6.29792 18.6958L6.51194 18.239C6.58329 18.0881 6.67048 17.9411 6.74975 17.7941L7.22933 16.9083L7.75251 16.0464L8.01806 15.6134L8.30344 15.1963C9.04461 14.0682 9.90864 13.0314 10.8084 12.0264C11.72 11.0334 12.7148 10.1237 13.7572 9.26574C14.8154 8.43555 15.9212 7.65302 17.0865 6.96979C18.2557 6.29848 19.4527 5.6669 20.7052 5.15845C22.2152 4.52289 23.4518 3.935 23.4122 3.65298C23.3726 3.39081 21.9893 3.55764 20.4277 4.20114C19.1118 4.72548 17.8435 5.36104 16.6069 6.06015C15.3743 6.77118 14.2051 7.57754 13.0794 8.45144C11.9697 9.34122 10.9233 10.3104 9.94431 11.3512C8.98912 12.4078 8.07752 13.5121 7.28482 14.6998C6.49213 15.8835 5.76285 17.1189 5.16436 18.4138C4.84332 19.0533 4.58569 19.7167 4.31221 20.3761C4.17349 20.7058 4.07044 21.0434 3.94757 21.3811C3.8366 21.7187 3.70184 22.0484 3.61068 22.394C2.77835 25.115 2.30669 27.9273 2.16401 30.7516C2.00151 34.3782 2.47712 37.9135 3.40061 41.3614C4.38356 44.7894 5.8976 48.0983 8.04581 50.9702C10.1702 53.8461 12.8416 56.301 15.842 58.1759C18.8423 60.0548 22.1558 61.3616 25.5604 62.1203C27.233 62.4937 28.9333 62.736 30.6376 62.8433C30.6931 62.446 30.7565 62.0528 30.816 61.6675C29.5199 61.5801 28.2318 61.4212 26.9556 61.1829C23.0476 60.4599 19.2704 58.9862 15.9411 56.7935C17.6691 57.866 19.5161 58.732 21.4186 59.3676C24.4031 60.5036 27.6135 61.1908 30.8517 61.449V61.4411C30.8992 60.9048 30.9587 60.3686 31.0142 59.8323C27.8553 59.6615 24.7162 59.014 21.7555 57.878C17.2886 56.1699 13.2736 53.2662 10.3327 49.4529C10.2852 49.3774 10.2376 49.3059 10.1782 49.2264C7.90709 46.0526 6.38511 42.3942 5.63205 38.5491C5.56864 38.2075 5.4854 37.8976 5.40217 37.6752C5.32686 37.4488 5.25552 37.3137 5.19211 37.3177C5.16436 37.3256 5.13662 37.3653 5.12076 37.4368L4.93052 36.273C4.85917 35.8837 4.83143 35.4904 4.78387 35.1012C4.67289 34.3147 4.64515 33.5321 4.58569 32.7496C4.57777 32.0942 4.55002 31.5381 4.47075 31.1885C4.78387 27.832 5.59638 24.6383 6.88055 21.7545C6.70615 22.2708 6.50005 22.7793 6.34944 23.3076L6.11956 24.0981L6.00462 24.4953L5.9095 24.8965C5.37443 27.0892 5.10095 29.3494 5.04942 31.5778L5.03357 32.408C5.01771 32.686 5.06131 32.9601 5.0732 33.2382C5.11284 33.7903 5.13265 34.3385 5.21192 34.8946C5.2793 35.4467 5.32686 35.9989 5.43388 36.5391C5.529 37.0833 5.60827 37.6275 5.73907 38.1638C6.66256 42.4498 8.54521 46.4181 11.2523 49.5124C12.5959 51.0656 14.1139 52.4161 15.7508 53.5443C17.3957 54.6605 19.1475 55.5502 20.939 56.2335C24.3397 57.5284 27.8989 58.0011 31.252 57.87C31.2639 57.7906 31.2718 57.7111 31.2837 57.6357C31.2599 57.6357 31.2361 57.6357 31.2123 57.6357C27.8394 57.6794 24.3714 57.0915 21.1253 55.7886C17.8752 54.4976 14.8471 52.4916 12.4017 49.8262C9.95224 47.1688 8.12508 43.848 7.0589 40.2055C6.52383 38.3862 6.16712 36.4835 5.99669 34.5451C5.93724 34.0604 5.93328 33.5877 5.89761 33.1071C5.85004 32.6304 5.88175 32.1498 5.88968 31.6692L5.90553 30.9502L5.96102 30.2193C5.99669 29.7307 6.02444 29.2381 6.09974 28.7535C6.79731 25.7664 7.83574 22.5131 9.49644 19.5062C11.1452 16.4992 13.4639 13.7861 16.1234 11.808C16.4325 11.5816 16.702 11.3512 16.8963 11.1526C17.0984 10.9659 17.2133 10.8109 17.2054 10.7355C17.1935 10.5726 16.6307 10.7871 16.0322 11.236L15.6478 11.5061C15.5209 11.6014 15.402 11.6968 15.2792 11.7921C15.0334 11.9867 14.7837 12.1734 14.5459 12.376C14.0782 12.7891 13.5947 13.1943 13.1587 13.6431C12.7029 14.0682 12.3026 14.5409 11.8825 14.9977C11.8626 15.0215 11.8468 15.0414 11.827 15.0652C11.6407 15.2956 11.4504 15.522 11.2681 15.7524C11.0739 15.9987 10.8837 16.245 10.7013 16.4992C10.8797 16.241 11.0699 15.9947 11.2681 15.7524C11.4544 15.522 11.6446 15.2956 11.827 15.0652C11.8389 15.0493 11.8547 15.0334 11.8666 15.0136C11.8706 15.0096 11.8785 15.0017 11.8825 14.9977C13.5154 13.0751 15.4496 11.4028 17.6176 10.0721C19.1237 9.24191 20.7012 8.56266 22.3341 8.03435C22.9088 7.86752 23.547 7.55768 23.7768 7.37099C23.8244 7.32729 23.8323 7.29552 23.8244 7.26771C25.6714 6.69174 27.5659 6.29848 29.4724 6.08398C31.3788 5.86948 33.305 5.84168 35.2036 5.98071C37.1021 6.11973 38.9807 6.4256 40.8079 6.89829C42.6311 7.37893 44.3988 8.02641 46.0754 8.8288C47.7559 9.63516 49.3452 10.5964 50.8117 11.7126C52.2782 12.8288 53.6179 14.1 54.8069 15.4942C57.1929 18.2827 58.9567 21.5916 60.0823 25.1467V25.1547C60.3914 26.1954 60.6927 26.8866 60.8472 26.6443C60.9186 26.5251 60.9582 26.1994 60.9027 25.7704C60.8472 25.3454 60.7561 24.8091 60.5896 24.2808C59.3808 20.0583 57.1493 16.2211 54.0856 13.238C51.0495 10.231 47.2723 8.03435 43.1543 6.65201C37.8393 4.87642 32.116 4.51098 26.6781 5.5954C25.3186 5.86551 23.983 6.2389 22.675 6.69174C21.3631 7.13663 20.0908 7.69671 18.8621 8.34021C16.3969 9.6153 14.1456 11.3035 12.2035 13.3095C11.1532 14.2906 10.1782 15.3671 9.28241 16.5349C8.39856 17.7067 7.61775 18.9779 6.92018 20.3086C7.30068 19.4784 7.71684 18.6641 8.18849 17.8736C9.91657 14.946 12.1916 12.4237 14.8154 10.4097C17.4432 8.3998 20.4119 6.90624 23.5271 5.88934C29.7617 3.87145 36.563 3.70461 43.1147 5.42062C49.2937 7.04526 54.6087 10.4177 58.4295 15.097C62.2582 19.7763 64.4976 25.6989 65.1318 31.9869C65.1437 32.114 65.1595 32.2213 65.1793 32.3166C65.2665 32.3166 65.3498 32.3166 65.437 32.3166C65.4726 32.0108 65.4687 31.546 65.4211 31.121L65.4052 31.1051Z" fill="#FEFEFC"/>
<path d="M11.8071 15.0453C11.8269 15.0215 11.8428 15.0017 11.8626 14.9778C11.8587 14.9818 11.8507 14.9897 11.8468 14.9937C11.8349 15.0096 11.819 15.0255 11.8071 15.0453Z" fill="#FEFEFC"/>
<path d="M11.2445 15.7325C11.0463 15.9749 10.8561 16.2211 10.6777 16.4793C10.8601 16.2251 11.0503 15.9788 11.2445 15.7325Z" fill="#FEFEFC"/>
<path d="M30.3879 63.8482C28.0217 63.5741 25.6357 63.0856 23.3368 62.4222C21.038 61.7469 18.8304 60.8889 16.7733 59.9395C16.5752 59.8522 16.4404 59.8244 16.5197 59.9117C16.6029 59.9991 16.813 60.1382 17.0428 60.2414C19.0325 61.1272 21.1768 61.9535 23.4161 62.593C25.6515 63.2365 27.9622 63.7092 30.2373 63.9833C30.5147 64.0151 30.7406 63.9992 30.7684 63.9555C30.8159 63.9197 30.6217 63.8721 30.3958 63.8522L30.3879 63.8482Z" fill="#FEFEFC"/>
<path d="M51.4737 4.63014C51.3746 4.50303 51.0694 4.27662 50.7206 4.10581C46.884 2.16339 42.7501 0.90816 38.521 0.344102C34.292 -0.215983 29.956 -0.10476 25.719 0.769132C21.486 1.64302 17.3481 3.28356 13.6621 5.75826C9.98003 8.2131 6.78547 11.5299 4.53422 15.379C2.36223 19.0335 1.03843 23.1288 0.424092 27.2123C0.356713 27.7247 0.277443 28.2332 0.221955 28.7456L0.09116 30.2789C0.0475617 30.7913 0.0435982 31.3275 0.0198174 31.8479C0.0158539 32.1101 0 32.3722 0 32.6344L0.0356713 33.4209L0.0753061 34.2074C0.083233 34.4735 0.10305 34.7317 0.130795 34.982L0.281407 36.5034C0.428056 37.5163 0.570741 38.5252 0.792695 39.5262C1.21679 41.5282 1.81924 43.5024 2.60797 45.3892C3.39274 47.28 4.39153 49.0795 5.5449 50.7438C7.85561 54.0805 10.852 56.8253 14.1338 58.7876C14.3121 58.8909 14.4271 58.9147 14.3835 58.8432C14.2963 58.7439 14.0624 58.5612 13.888 58.4619H13.8801C10.6618 56.4758 7.7486 53.7389 5.5132 50.4419C4.39153 48.7974 3.43633 47.0218 2.66346 45.1628C1.89454 43.3038 1.31984 41.3614 0.9116 39.3912C0.693608 38.4061 0.55885 37.413 0.420129 36.416C0.372567 35.9155 0.325005 35.4189 0.27348 34.9184C0.221955 34.4219 0.214028 33.8936 0.186283 33.3812L0.154576 32.6066L0.178356 31.832C0.202137 31.3196 0.206101 30.7873 0.249699 30.2868L0.384457 28.7734C0.439946 28.2689 0.519215 27.7644 0.586595 27.26C1.2049 23.2281 2.52473 19.1804 4.71257 15.5657C5.60039 14.1 6.59919 12.7136 7.69311 11.4266C8.79892 10.1476 10.0117 8.97577 11.2919 7.91121C12.5721 6.83871 13.9435 5.90126 15.3585 5.06709C16.7774 4.23292 18.2439 3.50203 19.754 2.90222C21.2641 2.29844 22.8098 1.79794 24.3793 1.40072C25.9528 1.01541 27.5462 0.733382 29.1553 0.546686C30.7645 0.356019 32.3895 0.288491 34.0225 0.308352C35.6515 0.336158 37.2924 0.447381 38.9293 0.693659C43.2376 1.29744 47.3992 2.71553 51.0456 4.53481C51.3508 4.70164 51.5529 4.74931 51.4697 4.63809L51.4737 4.63014Z" fill="#FEFEFC"/>
<path d="M25.7785 1.18622C21.2403 2.23886 16.8924 4.16937 13.1271 7.01349C11.2445 8.43157 9.49656 10.0562 7.95477 11.8834C6.41694 13.7107 5.07332 15.7246 3.95562 17.8736C2.75072 20.1973 1.87083 22.6442 1.3318 25.1587C1.21289 25.7902 1.0821 26.4179 0.986976 27.0574C0.907707 27.6929 0.80862 28.3325 0.761058 28.976C0.721423 29.6234 0.658008 30.259 0.646117 30.9224C0.646117 31.256 0.642154 31.5897 0.634227 31.9273C0.634227 32.261 0.622336 32.5987 0.658008 32.9323C0.693679 33.3812 0.72935 33.83 0.761058 34.271C0.788802 34.7159 0.864108 35.1329 0.91167 35.5619C1.00679 36.412 1.17326 37.2422 1.31991 38.0684C1.39521 38.4815 1.50223 38.8867 1.59339 39.2958C1.68851 39.701 1.77967 40.1062 1.89858 40.5074C2.01352 40.9086 2.12449 41.3058 2.23943 41.703L2.63578 42.8828C3.71781 46.0089 5.24375 48.9881 7.29287 51.8719C7.42366 52.0626 7.59409 52.2294 7.66147 52.2533C7.69714 52.2374 7.62184 52.0864 7.48708 51.8958C5.28338 48.7855 3.65043 45.4449 2.57633 41.9533C2.04919 40.2055 1.63699 38.4259 1.36351 36.6186C1.29216 36.1657 1.24857 35.7129 1.19308 35.2561L1.11381 34.5689L1.06625 33.8658C1.0385 33.3971 0.994903 32.9244 0.983013 32.4477C0.99094 31.971 0.998867 31.4944 1.00679 31.0177C1.07814 29.262 1.23271 27.538 1.57357 25.818L1.69248 25.1745L1.83912 24.535C1.94217 24.11 2.03333 23.681 2.15224 23.2639L2.52877 22.0047C2.65164 21.5836 2.8181 21.1745 2.96079 20.7654C4.15776 17.4724 5.97303 14.4018 8.24014 11.7444C10.5191 9.09097 13.2619 6.87843 16.2464 5.13859C19.2467 3.41861 22.4849 2.15544 25.8499 1.33319C26.1392 1.26963 26.3057 1.19813 26.3136 1.15841C26.2858 1.11869 26.0361 1.12663 25.7825 1.18622H25.7785Z" fill="#FEFEFC"/>
<path d="M6.73794 30.0246C6.71019 30.3027 6.67849 30.5808 6.65074 30.8548C6.623 31.1329 6.61903 31.399 6.59922 31.6771C6.58336 31.9512 6.56751 32.2253 6.55166 32.4993C6.54769 32.7734 6.56355 33.0515 6.56751 33.3295L6.59129 34.1597L6.65867 35.0098L6.73001 35.8638L6.84495 36.7059C7.16203 38.9542 7.72484 41.1628 8.6087 43.1847C9.48067 45.2105 10.6103 47.0655 11.9539 48.6385C13.2975 50.2076 14.8234 51.5025 16.4049 52.4956C16.5753 52.5989 16.6308 52.5671 16.5475 52.4638C16.4722 52.3526 16.2741 52.1699 16.1155 52.0745C14.5935 51.0696 13.1191 49.7825 11.8706 48.2095C10.6142 46.6445 9.54804 44.8292 8.73949 42.8589C7.94284 40.8808 7.41173 38.7516 7.1224 36.5828L7.01538 35.7685L6.948 34.9502L6.88459 34.1319L6.86081 33.3335C6.85684 33.0674 6.84099 32.8012 6.83703 32.5391C6.85288 32.2769 6.86477 32.0108 6.88062 31.7486C6.89648 31.4864 6.90837 31.2243 6.92026 30.9621C6.948 30.692 6.97178 30.4298 6.99953 30.1637C7.03916 29.7545 7.01538 29.397 6.95197 29.3454C6.8727 29.3176 6.7855 29.5996 6.73794 30.0326V30.0246Z" fill="#FEFEFC"/>
<path d="M25.6794 62.2752C23.3568 61.7429 21.0857 60.9644 18.9336 59.9276C16.7814 58.8988 14.7402 57.6357 12.8893 56.1381C11.0344 54.6446 9.34196 52.9484 7.89925 51.0616C5.25958 47.3317 3.58699 43.0139 2.72295 38.6166C2.59216 37.985 2.4574 37.4805 2.35039 37.4964C2.2513 37.5083 2.22356 38.0446 2.35039 38.6881C2.75466 40.9364 3.35315 43.1727 4.23304 45.3098C4.17755 45.2621 4.13395 45.2502 4.11017 45.278C3.31351 43.4071 2.71503 41.4567 2.29093 39.4825C2.19581 38.986 2.08483 38.4935 2.0016 37.993L1.77965 36.4994C1.67263 35.4984 1.56165 34.5093 1.52995 33.4765L1.49428 32.7099C1.48239 32.4517 1.5022 32.1975 1.51013 31.9432C1.52995 31.4308 1.53391 30.9144 1.56958 30.4139L1.69245 28.9084C1.74397 28.4079 1.81928 27.9074 1.8827 27.4069C2.17599 25.4089 2.63576 23.4188 3.28973 21.4843C3.44431 21.0593 3.50376 20.7137 3.44431 20.6978C3.38089 20.67 3.20253 20.9997 3.05192 21.4287C2.35435 23.4546 1.87477 25.536 1.58147 27.6294C1.42293 28.6781 1.34366 29.7188 1.27232 30.7714L1.22476 32.3762C1.21683 32.9085 1.26439 33.4447 1.28421 33.977C1.41501 36.0902 1.70434 38.1598 2.19185 40.2174C2.67539 42.271 3.36504 44.281 4.26475 46.2036C4.36383 46.5015 4.52237 46.8312 4.6928 47.1728C5.50531 48.7657 6.45259 50.2791 7.53065 51.6852C8.61664 53.0874 9.8255 54.3784 11.1374 55.5502C12.4493 56.722 13.8603 57.7747 15.3585 58.7002C16.8567 59.6178 18.4381 60.4083 20.079 61.0716C23.4678 62.4421 26.9913 63.2643 30.5386 63.5702C30.5585 63.3914 30.5783 63.2127 30.6021 63.0379C28.9453 62.9148 27.3005 62.6724 25.6794 62.2911V62.2752Z" fill="#FEFEFC"/>
</g>
<g opacity="0.8">
<path d="M53.6775 30.8429C53.3644 29.3891 52.8729 28.0028 52.2467 26.7118C50.9982 24.1259 49.175 21.961 47.1576 20.3046C47.0149 20.1973 46.9436 20.2093 46.9991 20.3403C47.0268 20.4476 47.1735 20.6303 47.328 20.7534C49.1631 22.4377 50.7287 24.5271 51.8028 26.8866C52.6391 28.7059 53.1742 30.692 53.3486 32.7417C53.5547 32.7377 53.7568 32.7337 53.9629 32.7297C53.8995 32.0902 53.8044 31.4586 53.6775 30.8429Z" fill="#8CA1D3"/>
<path d="M29.7421 52.8968C28.5134 52.5075 27.3283 51.9991 26.1987 51.3873C25.8103 51.1569 25.303 50.9981 25.0731 50.9981C25.0255 51.002 24.9978 51.0219 24.9859 51.0457C22.4295 49.6793 20.1544 47.8203 18.2995 45.6475C17.3721 44.563 16.5397 43.3992 15.8224 42.1837C15.1129 40.9602 14.5223 39.6851 14.0546 38.3703C13.1193 35.7447 12.711 32.976 12.9052 30.2431C13.0876 27.5063 13.8565 24.8091 15.101 22.2828L15.0931 22.2708C15.4736 21.5479 15.644 20.9918 15.3943 21.0116C15.1406 21.0236 14.5976 21.6313 14.2132 22.3821C12.604 25.3017 11.7796 28.5708 11.8509 31.8042C11.8985 35.0416 12.7744 38.2233 14.237 41.1628C16.1315 44.9523 18.9852 48.2334 22.4612 50.5889C25.2198 52.4598 28.4104 53.7389 31.7357 54.152C31.7753 53.862 31.815 53.576 31.8507 53.2861C31.1452 53.1987 30.4397 53.0716 29.7421 52.9008V52.8968Z" fill="#8CA1D3"/>
<path d="M31.2639 56.0785C30.2255 55.9514 29.195 55.7766 28.1843 55.5105C27.1776 55.2404 26.1788 54.9226 25.2156 54.5135C24.0385 54.0328 23.0238 53.723 22.8613 53.9534C22.7107 54.1719 23.5431 54.8829 24.7598 55.3993C25.7745 55.8442 26.8248 56.1977 27.895 56.4956C28.9651 56.7856 30.063 56.9882 31.1648 57.1312C31.2203 57.1391 31.2758 57.1391 31.3313 57.1471C31.3788 56.7935 31.4224 56.444 31.47 56.0905C31.4026 56.0825 31.3353 56.0785 31.2679 56.0746L31.2639 56.0785Z" fill="#8CA1D3"/>
<path d="M31.3512 54.5254C28.8542 54.1758 26.4603 53.3695 24.2407 52.2334C19.8016 49.9494 16.0403 46.3982 13.3491 41.9652C10.8125 37.7785 9.63136 33.0714 9.98808 28.3841C10.3369 23.6969 12.2591 19.1248 15.3031 15.232C15.4418 15.0573 15.5251 14.9103 15.5488 14.8229C15.5726 14.7395 15.5369 14.7077 15.4458 14.7395C15.2595 14.807 14.8909 15.1526 14.6095 15.5101C14.4034 15.7564 14.2171 16.0225 14.0308 16.2807C13.8445 16.5429 13.6583 16.7971 13.4799 17.0593C13.139 17.5955 12.7863 18.1079 12.493 18.6601C11.8628 19.7326 11.3674 20.8567 10.9274 21.9729C10.5033 23.101 10.1744 24.245 9.92863 25.401C9.70271 26.5609 9.5402 27.7168 9.49661 28.8846C9.29447 33.556 10.535 38.1836 13.1509 42.6127C14.5183 44.9007 16.1711 46.9186 18.022 48.6663C19.8809 50.4102 21.938 51.8958 24.1813 53.0279C26.4167 54.1639 28.8344 54.9623 31.3512 55.3159C31.4265 55.3278 31.4979 55.3318 31.5732 55.3397C31.6088 55.0815 31.6445 54.8193 31.6802 54.5611C31.5732 54.5492 31.4622 54.5373 31.3552 54.5254H31.3512Z" fill="#8CA1D3"/>
<path d="M31.4701 52.6346C31.1887 52.5869 30.9271 52.575 30.7171 52.5869C30.5149 52.5869 30.3643 52.6227 30.3287 52.6863C30.2415 52.8134 30.6497 53.0318 31.2006 53.1113C31.4186 53.151 31.6366 53.1868 31.8546 53.2225C31.8784 53.0438 31.9022 52.869 31.9259 52.6902C31.7753 52.6704 31.6208 52.6584 31.4701 52.6346Z" fill="#8CA1D3"/>
<path d="M54.51 27.3791C53.8838 24.6899 52.2033 23.6095 51.4899 21.0077C50.0511 15.7683 46.4879 12.4793 41.5296 10.5885C39.0525 9.63914 36.4207 9.15453 33.8088 9.15453C32.5048 9.15453 31.2087 9.28164 29.9404 9.53189C28.6761 9.79008 27.4434 10.1635 26.2703 10.6441C25.8065 10.8149 25.4736 11.0334 25.5608 11.1208C25.6123 11.2161 26.0602 11.1486 26.5041 10.9857H26.2703C28.8346 10.2429 31.5536 9.88145 34.2884 10.0403C35.3981 10.1039 36.5079 10.2509 37.6018 10.4813C39.2031 10.8189 40.7726 11.3313 42.2629 12.0145C43.0516 12.5508 43.8721 13.1188 44.6766 13.7504C45.4812 14.386 46.2858 15.0652 47.0666 15.804C46.2581 15.1566 45.402 14.5647 44.5221 14.0245C43.6382 13.4843 42.7147 13.0155 41.7674 12.5985C39.0089 11.4068 36.171 10.9301 33.4759 11.0731C30.7807 11.2201 28.2361 11.9828 25.9254 13.2181C25.866 13.2499 25.9413 13.2936 25.9651 13.3333C25.8026 13.4445 25.8065 13.516 25.973 13.5002C26.1196 13.4922 26.3971 13.381 26.5635 13.2777C29.7977 12.0106 33.3609 11.669 36.8052 12.3323C40.2494 12.9877 43.551 14.5806 46.3492 16.8289C49.1435 19.0851 51.4463 22.0007 52.9405 25.2937C54.0027 27.6175 54.51 29.5956 54.7478 31.8439M54.2683 24.5271C52.4054 20.4476 49.3615 16.7693 45.8221 14.0404C48.3468 15.7842 50.5426 17.9888 52.2786 20.5072C54.0186 23.0256 55.2829 25.8816 55.9171 28.8886C55.5405 27.3633 54.9856 25.8935 54.2722 24.5271H54.2683Z" fill="#8CA1D3"/>
<path d="M52.2388 16.8607C53.3842 18.3344 54.4306 19.9312 55.3382 21.5757C56.2419 23.2202 57.0069 24.9164 57.6648 26.5807C57.7322 26.7396 57.7956 26.827 57.8114 26.7317C57.8233 26.6363 57.7837 26.4417 57.7084 26.255C57.0544 24.6661 56.3093 23.0176 55.4215 21.4248C54.5336 19.8319 53.523 18.2827 52.4251 16.8567C52.2903 16.6859 52.1476 16.5747 52.108 16.5866C52.0604 16.5866 52.1318 16.7256 52.2428 16.8646L52.2388 16.8607Z" fill="#8CA1D3"/>
<path d="M27.9704 58.0607C26.714 57.727 25.4853 57.306 24.3042 56.7896C23.123 56.2772 21.9816 55.6893 20.8876 55.0299C19.7977 54.3625 18.7513 53.6277 17.7525 52.8332C16.7498 52.0427 15.8065 51.1689 14.9107 50.2473C14.015 49.3257 13.1628 48.3446 12.382 47.2959C10.3012 44.5591 8.75148 41.4488 7.66549 38.3902C7.58225 38.124 7.48713 37.989 7.45938 38.1002C7.43164 38.2313 7.47524 38.5332 7.57433 38.8231C8.68014 42.0645 10.321 45.0715 12.3781 47.7527C14.4351 50.43 16.9162 52.7935 19.7699 54.6883C22.6197 56.5751 25.8499 57.9971 29.3021 58.7002C29.8927 58.8234 30.4951 58.9187 31.0976 58.9981C31.1095 58.8949 31.1213 58.7916 31.1372 58.6883C30.0631 58.5493 29.0088 58.3387 27.9743 58.0647L27.9704 58.0607Z" fill="#8CA1D3"/>
<path d="M58.4653 28.5112C58.4534 28.6145 58.4772 28.8489 58.5208 28.9998C58.8102 30.1398 59.0044 31.3236 59.1074 32.5272C59.1589 32.5272 59.2105 32.5232 59.262 32.5192C59.151 31.2004 58.9291 29.9134 58.5922 28.6781C58.5486 28.5192 58.4891 28.4437 58.4653 28.5112Z" fill="#8CA1D3"/>
<path d="M52.3498 31.0058C52.3221 31.1011 52.326 31.2997 52.3657 31.4308C52.4727 31.8598 52.5559 32.3007 52.6193 32.7536C52.6827 32.7536 52.7501 32.7536 52.8135 32.7536C52.7343 32.1697 52.6193 31.6056 52.4727 31.0654C52.4291 30.9263 52.3696 30.9105 52.3498 31.0098V31.0058Z" fill="#8CA1D3"/>
<path d="M57.6886 28.0783C57.3557 26.7396 56.9118 25.4248 56.3609 24.1537C54.7953 20.5231 52.5559 17.3254 49.7934 14.672C48.4101 13.3452 46.8842 12.1734 45.2433 11.1645C43.5945 10.1674 41.8228 9.34916 39.956 8.76127C36.9993 7.83574 33.8642 7.66891 30.7647 8.00655C28.1647 8.27666 25.4854 8.94399 23.4283 10.1555C22.0094 10.9778 20.7887 11.9113 19.7146 12.9083C18.6523 13.9133 17.7328 14.9619 16.9045 16.0464C16.8014 16.1735 16.8252 16.2172 16.9322 16.1536C17.0234 16.1139 17.1938 15.9629 17.277 15.8517C18.9298 13.7067 21.2326 11.661 23.6939 10.1237C26.2464 8.95988 28.997 8.22502 31.7873 8.05024C34.5776 7.85957 37.3798 8.17735 40.067 8.92016C41.0896 9.29752 42.0606 9.74639 42.9841 10.2509C43.8997 10.7712 44.7915 11.3114 45.6317 11.9311C46.476 12.5428 47.2885 13.1863 48.0732 13.8815C48.8659 14.5687 49.6269 15.2996 50.3839 16.0742H50.38C51.68 17.4009 52.8413 18.8627 53.8203 20.4396C54.8072 22.0166 55.6316 23.6929 56.2459 25.4526C56.8286 27.0733 57.2328 28.7615 57.4587 30.4695C57.5499 31.1726 57.6133 31.8837 57.6411 32.5947C57.867 32.5828 58.0929 32.5748 58.3188 32.5629C58.3109 32.4318 58.3109 32.3007 58.303 32.1697C58.2158 30.7873 58.0057 29.4209 57.6807 28.0783H57.6886Z" fill="#8CA1D3"/>
</g>
<g opacity="0.8">
<path d="M35.0848 49.4846C35.4415 49.4409 35.715 49.3257 35.6634 49.2185C35.6397 49.1112 35.3147 49.0596 34.9778 49.0954L35.1403 49.1549C34.2128 49.1549 33.2814 49.0914 32.3579 48.9563C32.3381 49.1788 32.3143 49.4012 32.2905 49.6237C33.2299 49.6713 34.1692 49.6237 35.0848 49.4846Z" fill="#FEFEFC"/>
<path d="M35.7071 47.1172C35.7507 47.1013 35.7071 47.0417 35.6952 46.994C35.822 46.9345 35.826 46.863 35.7111 46.8352C35.612 46.8073 35.4098 46.8232 35.287 46.8749C34.3714 46.998 33.4479 47.006 32.5244 46.9106C32.5086 47.145 32.4927 47.3754 32.4729 47.6097C33.5827 47.5978 34.6687 47.431 35.7071 47.1251V47.1172Z" fill="#FEFEFC"/>
<path d="M48.7984 28.8926C48.1087 27.0931 47.217 25.4367 46.1746 23.9233C45.1322 22.4099 43.9312 21.0275 42.5678 19.8319C41.2044 18.6362 39.6784 17.6114 37.99 16.8805C36.3055 16.1496 34.4625 15.6968 32.556 15.665C30.9627 15.6372 29.3734 15.8954 27.895 16.4118C26.4087 16.9123 25.0294 17.6591 23.7849 18.5528C22.0489 19.5578 20.4754 20.9243 19.2625 22.5926C19.9839 21.4923 20.8598 20.4873 21.8428 19.6055C22.8257 18.7197 23.8998 17.9332 25.0611 17.2777C27.681 15.7762 30.7487 14.9381 33.8164 15.1645C36.8802 15.3671 39.8251 16.5667 42.2666 18.3979C43.0077 18.954 43.7132 19.3036 43.9193 19.1169C44.0145 19.0216 43.959 18.8031 43.7767 18.533C43.5983 18.2589 43.2891 17.9411 42.9047 17.6432C41.6126 16.6462 40.1897 15.8001 38.6519 15.1804C37.883 14.8706 37.0903 14.6084 36.2778 14.4217C35.8735 14.3184 35.4613 14.2509 35.0491 14.1754C34.6369 14.1278 34.2207 14.0602 33.8045 14.0364C32.132 13.9053 30.4396 14.0761 28.8225 14.4773C27.2054 14.8944 25.6715 15.5538 24.2605 16.384C23.3727 16.9163 22.5245 17.5121 21.7318 18.1636C20.9391 18.8269 20.194 19.5499 19.5122 20.3364C18.1567 21.9133 17.0945 23.7723 16.4445 25.7545C15.7945 27.7366 15.5686 29.826 15.6954 31.8558C15.8223 33.8896 16.2979 35.8678 17.043 37.7149C18.5293 41.4051 21.062 44.5988 24.2605 46.7994C25.8617 47.8918 27.6334 48.718 29.4844 49.1947C30.4118 49.433 31.3551 49.572 32.2984 49.6197C32.3222 49.3972 32.342 49.1748 32.3658 48.9524C31.367 48.8054 30.3722 48.579 29.4011 48.2532C27.5304 47.6336 25.7468 46.6802 24.1773 45.4449C23.7333 44.9126 23.2934 44.3406 22.8455 43.7487C22.4095 43.1489 21.9736 42.5253 21.5574 41.8778C22.0291 42.4498 22.5324 43.0019 23.0635 43.5223C23.6026 44.0347 24.1654 44.5193 24.7559 44.9682C26.4761 46.2631 28.3746 47.0695 30.2493 47.4072C31.0024 47.5422 31.7475 47.6018 32.4847 47.5938C32.5006 47.3595 32.5204 47.1291 32.5362 46.8947C31.1015 46.7438 29.6746 46.3346 28.327 45.7031C26.1035 44.6703 24.1138 43.0258 22.5047 41.0555C20.9034 39.0774 19.6827 36.7496 19.0327 34.2749C18.3906 31.8002 18.3153 29.1666 19.0247 26.6959C19.0446 26.6522 19.0604 26.6085 19.0723 26.5569C19.758 24.5986 20.8915 22.823 22.3977 21.3652C22.6672 21.111 22.8297 20.825 22.7544 20.7336C22.7306 20.7137 22.6949 20.7018 22.6513 20.7058C23.2617 20.1179 23.9196 19.5658 24.6132 19.0613C24.9065 18.8587 25.1404 18.6561 25.2553 18.4813C26.0877 18.0881 26.9279 17.7584 27.784 17.528C28.6362 17.3016 29.4923 17.1546 30.3365 17.095C30.0511 17.1427 29.7658 17.2182 29.4804 17.2777C29.199 17.3612 28.9136 17.4366 28.6362 17.524C26.3453 18.2907 24.2565 19.6651 22.6513 21.3572C21.8507 22.2073 21.1769 23.1408 20.6577 24.1259C20.1385 25.111 19.7857 26.1557 19.5796 27.2044C19.1595 29.3057 19.3973 31.4308 20.0275 33.3216C20.6696 35.2203 21.7159 36.9006 22.9525 38.2432C23.0437 38.3306 23.1071 38.3226 23.0992 38.2194C23.1071 38.136 23.0397 37.993 22.9446 37.8897C21.8705 36.5351 21.0065 34.9462 20.4912 33.2302C19.976 31.5182 19.8135 29.6791 20.1147 27.8757C20.412 26.0762 21.1888 24.3165 22.4135 22.7992C23.6343 21.2818 25.2831 19.9828 27.1142 19.0772C28.6837 18.6839 30.3801 18.3622 32.1042 18.3582C33.8283 18.3502 35.5881 18.6998 37.1339 19.4069C37.4906 19.5538 37.8394 19.6214 37.9345 19.5101C38.0336 19.4029 37.8156 19.1526 37.4589 18.9858C36.3015 18.3939 35.0372 18.0126 33.7411 17.8458C35.3622 18.0285 36.9515 18.5647 38.4022 19.391C39.1433 19.9074 39.833 20.4913 40.4751 21.1308C40.5821 21.246 40.7208 21.3453 40.8516 21.4208C40.9784 21.5042 41.1053 21.5558 41.1964 21.5558C41.2361 21.5558 41.2638 21.54 41.2797 21.5201C42.7779 22.9024 44.0224 24.5509 44.9736 26.3225C45.9249 28.0941 46.6026 29.9929 46.9197 31.9035C46.9593 32.1418 46.995 32.3802 47.0227 32.6225C47.3319 32.6424 47.641 32.6582 47.9462 32.6741L47.4112 29.8816C46.5828 26.9938 45.1044 24.2967 43.1148 22.0643C41.1251 19.8438 38.5647 18.0762 35.6634 17.3095C34.2207 16.7455 32.6274 16.4515 30.9825 16.4595C31.2322 16.4436 31.4819 16.4197 31.7277 16.4118C31.9734 16.4118 32.2271 16.4078 32.4768 16.4078C34.3277 16.4475 36.1232 16.8885 37.768 17.6114C39.4168 18.3304 40.9229 19.3314 42.2626 20.5111C44.9459 22.8786 47.0386 25.8856 48.4575 29.3494C48.9054 30.4576 49.2462 31.5897 49.4841 32.7337C49.6307 32.7337 49.7774 32.7377 49.924 32.7417C49.6783 31.4586 49.3017 30.1756 48.8063 28.8846L48.7984 28.8926ZM21.9934 43.4349C20.4952 41.7984 19.2744 39.9195 18.3866 37.8857C17.5028 35.8559 16.9479 33.6672 16.8528 31.4348C16.9558 32.5709 17.1976 33.6831 17.5622 34.7397C18.3866 37.8778 19.9958 40.8887 21.9934 43.4309V43.4349Z" fill="#FEFEFC"/>
<path d="M48.0572 33.2938C48.0374 33.0952 48.0136 32.8926 47.9859 32.694C47.97 32.694 47.9542 32.694 47.9423 32.694L48.0572 33.2978V33.2938Z" fill="#FEFEFC"/>
<path d="M47.9424 32.69C47.9424 32.69 47.9741 32.69 47.986 32.69C47.867 31.7526 47.6689 30.8191 47.4033 29.8975L47.9384 32.69H47.9424Z" fill="#FEFEFC"/>
<path d="M17.3639 40.7616C16.1749 38.267 15.3187 35.5381 14.7123 32.9363C14.6806 32.8132 14.637 32.7417 14.6053 32.8092C14.5736 32.8807 14.5736 33.0316 14.6053 33.1746C15.2236 35.6771 16.0639 38.3465 17.1974 40.7576C17.2727 40.9006 17.356 41.0039 17.4035 40.992C17.4471 40.996 17.4273 40.8808 17.3639 40.7616Z" fill="#FEFEFC"/>
<path d="M53.2931 32.7695C53.2931 32.7695 53.297 32.7496 53.301 32.7417C53.2693 32.7417 53.2415 32.7417 53.2098 32.7417C53.2376 32.7933 53.2653 32.8092 53.2931 32.7655V32.7695Z" fill="#FEFEFC"/>
<path d="M53.3089 32.2173C52.8571 29.6592 52.0366 27.2401 50.9229 24.9759C49.8052 22.7157 48.3863 20.6104 46.6542 18.7316C44.9261 16.8567 42.8612 15.2122 40.4791 14.0046C38.105 12.7971 35.39 12.0582 32.6275 12.0304C30.0037 11.9907 27.3878 12.5865 25.0691 13.6074C23.9078 14.1119 22.8258 14.7355 21.7913 15.4386C20.7648 16.1457 19.8096 16.9282 18.9218 17.8299C17.1541 19.6134 15.7351 21.818 14.9306 24.1775C14.1101 26.537 13.904 29.0078 14.1775 31.2759C14.1933 31.399 14.2369 31.4626 14.2726 31.4149C14.3043 31.3355 14.3202 31.1647 14.3083 31.0455C14.0705 28.8091 14.3083 26.39 15.1248 24.0862C15.9333 21.7783 17.3364 19.6373 19.0724 17.8974C19.5044 17.4565 19.9642 17.0553 20.4279 16.6581C20.9035 16.2807 21.3831 15.9033 21.8944 15.5617C22.913 14.8745 23.9752 14.2708 25.1246 13.7782C27.4076 12.7851 29.9918 12.2211 32.5839 12.2886C33.6342 12.3045 34.6766 12.4396 35.6833 12.6461C36.694 12.8487 37.673 13.1466 38.6044 13.516C40.4791 14.2469 42.1715 15.2638 43.6935 16.4436C45.2036 17.6352 46.5512 18.9898 47.7283 20.4873C48.3228 21.2301 48.8658 22.0126 49.3771 22.823C49.8884 23.6333 50.3601 24.4754 50.7802 25.3493C51.9019 27.6532 52.651 30.1279 53.1345 32.5391C53.1543 32.6344 53.1781 32.7099 53.2019 32.7575C53.2336 32.7575 53.2613 32.7575 53.293 32.7575C53.3406 32.6503 53.3366 32.4437 53.301 32.2292L53.3089 32.2173Z" fill="#FEFEFC"/>
<path d="M46.349 19.0136C44.4188 17.0791 42.1358 15.4783 39.5596 14.3621C36.9873 13.2578 34.1019 12.6421 31.1451 12.7494C29.5518 12.7971 27.9862 13.095 26.5118 13.6153C25.0334 14.1397 23.67 14.8745 22.3898 15.8199C21.5337 16.4555 20.7806 17.1387 20.0632 17.8537C19.3617 18.5846 18.7117 19.3433 18.1251 20.1497C17.5425 20.964 17.0153 21.8101 16.5397 22.7078C16.072 23.6095 15.6559 24.5549 15.2991 25.5519C15.2516 25.683 15.2318 25.822 15.2595 25.8697C15.2952 25.8856 15.3586 25.8022 15.4062 25.6711C16.1949 23.53 17.265 21.5678 18.6364 19.8637C20.0038 18.1437 21.609 16.6819 23.5075 15.4823C25.2633 14.386 27.2451 13.5836 29.3338 13.1943C30.3762 13.0036 31.4384 12.9123 32.5006 12.9162C33.5628 12.9202 34.6132 13.0473 35.6437 13.2499C37.7047 13.659 39.6428 14.4495 41.4105 15.4664C43.1822 16.4793 44.7755 17.7385 46.246 19.1328C46.3649 19.2599 46.4679 19.3076 46.4996 19.2877C46.5274 19.248 46.4521 19.1169 46.3451 19.0096L46.349 19.0136Z" fill="#FEFEFC"/>
<path d="M26.8923 20.0861C25.8736 20.5628 24.8907 21.1944 24.0068 21.9411C23.5629 22.3106 23.1666 22.7157 22.7861 23.1368C22.4254 23.5698 22.0806 24.0107 21.8032 24.4834C20.6379 26.3503 20.2732 28.5231 20.6181 30.3663C20.6458 30.4656 20.6934 30.4815 20.733 30.4179C20.7726 30.3583 20.7845 30.2272 20.7726 30.1359C20.6339 29.2381 20.6696 28.2729 20.8836 27.3076C21.0977 26.3424 21.5138 25.397 22.0806 24.5191C22.6474 23.6333 23.3925 22.8389 24.2288 22.1358C25.077 21.4287 26.0124 20.8329 26.9676 20.3562C27.1499 20.2609 27.2846 20.1298 27.2727 20.0583C27.245 19.9828 27.0865 19.9868 26.8883 20.0861H26.8923Z" fill="#FEFEFC"/>
</g>
</svg>
